<?xml version="1.0" encoding="utf-8" standalone="no"?>
<!DOCTYPE svg PUBLIC "-//W3C//DTD SVG 1.1//EN"
  "http://www.w3.org/Graphics/SVG/1.1/DTD/svg11.dtd">
<svg xmlns:xlink="http://www.w3.org/1999/xlink" width="714.648438pt" height="337.126875pt" viewBox="0 0 714.648438 337.126875" xmlns="http://www.w3.org/2000/svg" version="1.1">
 <metadata>
  <rdf:RDF xmlns:dc="http://purl.org/dc/elements/1.1/" xmlns:cc="http://creativecommons.org/ns#" xmlns:rdf="http://www.w3.org/1999/02/22-rdf-syntax-ns#">
   <cc:Work>
    <dc:type rdf:resource="http://purl.org/dc/dcmitype/StillImage"/>
    <dc:date>2025-09-08T10:49:04.753338</dc:date>
    <dc:format>image/svg+xml</dc:format>
    <dc:creator>
     <cc:Agent>
      <dc:title>Matplotlib v3.10.6, https://matplotlib.org/</dc:title>
     </cc:Agent>
    </dc:creator>
   </cc:Work>
  </rdf:RDF>
 </metadata>
 <defs>
  <style type="text/css">*{stroke-linejoin: round; stroke-linecap: butt}</style>
 </defs>
 <g id="figure_1">
  <g id="patch_1">
   <path d="M 0 337.126875 
L 714.648438 337.126875 
L 714.648438 0 
L 0 0 
z
" style="fill: #ffffff"/>
  </g>
  <g id="axes_1">
   <g id="patch_2">
    <path d="M 37.848438 299.570625 
L 707.448438 299.570625 
L 707.448438 22.370625 
L 37.848438 22.370625 
z
" style="fill: #ffffff"/>
   </g>
   <g id="matplotlib.axis_1">
    <g id="xtick_1">
     <g id="line2d_1">
      <path d="M 63.967586 299.570625 
L 63.967586 22.370625 
" clip-path="url(#p1b3478e040)" style="fill: none; stroke-dasharray: 2.22,0.96; stroke-dashoffset: 0; stroke: #b0b0b0; stroke-opacity: 0.5; stroke-width: 0.6"/>
     </g>
     <g id="line2d_2">
      <defs>
       <path id="maa73b6cb08" d="M 0 0 
L 0 3.5 
" style="stroke: #000000; stroke-width: 0.8"/>
      </defs>
      <g>
       <use xlink:href="#maa73b6cb08" x="63.967586" y="299.570625" style="stroke: #000000; stroke-width: 0.8"/>
      </g>
     </g>
     <g id="text_1">
      <!-- 2014 -->
      <g transform="translate(51.242586 314.169063) scale(0.1 -0.1)">
       <defs>
        <path id="DejaVuSans-32" d="M 1228 531 
L 3431 531 
L 3431 0 
L 469 0 
L 469 531 
Q 828 903 1448 1529 
Q 2069 2156 2228 2338 
Q 2531 2678 2651 2914 
Q 2772 3150 2772 3378 
Q 2772 3750 2511 3984 
Q 2250 4219 1831 4219 
Q 1534 4219 1204 4116 
Q 875 4013 500 3803 
L 500 4441 
Q 881 4594 1212 4672 
Q 1544 4750 1819 4750 
Q 2544 4750 2975 4387 
Q 3406 4025 3406 3419 
Q 3406 3131 3298 2873 
Q 3191 2616 2906 2266 
Q 2828 2175 2409 1742 
Q 1991 1309 1228 531 
z
" transform="scale(0.015625)"/>
        <path id="DejaVuSans-30" d="M 2034 4250 
Q 1547 4250 1301 3770 
Q 1056 3291 1056 2328 
Q 1056 1369 1301 889 
Q 1547 409 2034 409 
Q 2525 409 2770 889 
Q 3016 1369 3016 2328 
Q 3016 3291 2770 3770 
Q 2525 4250 2034 4250 
z
M 2034 4750 
Q 2819 4750 3233 4129 
Q 3647 3509 3647 2328 
Q 3647 1150 3233 529 
Q 2819 -91 2034 -91 
Q 1250 -91 836 529 
Q 422 1150 422 2328 
Q 422 3509 836 4129 
Q 1250 4750 2034 4750 
z
" transform="scale(0.015625)"/>
        <path id="DejaVuSans-31" d="M 794 531 
L 1825 531 
L 1825 4091 
L 703 3866 
L 703 4441 
L 1819 4666 
L 2450 4666 
L 2450 531 
L 3481 531 
L 3481 0 
L 794 0 
L 794 531 
z
" transform="scale(0.015625)"/>
        <path id="DejaVuSans-34" d="M 2419 4116 
L 825 1625 
L 2419 1625 
L 2419 4116 
z
M 2253 4666 
L 3047 4666 
L 3047 1625 
L 3713 1625 
L 3713 1100 
L 3047 1100 
L 3047 0 
L 2419 0 
L 2419 1100 
L 313 1100 
L 313 1709 
L 2253 4666 
z
" transform="scale(0.015625)"/>
       </defs>
       <use xlink:href="#DejaVuSans-32"/>
       <use xlink:href="#DejaVuSans-30" transform="translate(63.623047 0)"/>
       <use xlink:href="#DejaVuSans-31" transform="translate(127.246094 0)"/>
       <use xlink:href="#DejaVuSans-34" transform="translate(190.869141 0)"/>
      </g>
     </g>
    </g>
    <g id="xtick_2">
     <g id="line2d_3">
      <path d="M 169.019811 299.570625 
L 169.019811 22.370625 
" clip-path="url(#p1b3478e040)" style="fill: none; stroke-dasharray: 2.22,0.96; stroke-dashoffset: 0; stroke: #b0b0b0; stroke-opacity: 0.5; stroke-width: 0.6"/>
     </g>
     <g id="line2d_4">
      <g>
       <use xlink:href="#maa73b6cb08" x="169.019811" y="299.570625" style="stroke: #000000; stroke-width: 0.8"/>
      </g>
     </g>
     <g id="text_2">
      <!-- 2016 -->
      <g transform="translate(156.294811 314.169063) scale(0.1 -0.1)">
       <defs>
        <path id="DejaVuSans-36" d="M 2113 2584 
Q 1688 2584 1439 2293 
Q 1191 2003 1191 1497 
Q 1191 994 1439 701 
Q 1688 409 2113 409 
Q 2538 409 2786 701 
Q 3034 994 3034 1497 
Q 3034 2003 2786 2293 
Q 2538 2584 2113 2584 
z
M 3366 4563 
L 3366 3988 
Q 3128 4100 2886 4159 
Q 2644 4219 2406 4219 
Q 1781 4219 1451 3797 
Q 1122 3375 1075 2522 
Q 1259 2794 1537 2939 
Q 1816 3084 2150 3084 
Q 2853 3084 3261 2657 
Q 3669 2231 3669 1497 
Q 3669 778 3244 343 
Q 2819 -91 2113 -91 
Q 1303 -91 875 529 
Q 447 1150 447 2328 
Q 447 3434 972 4092 
Q 1497 4750 2381 4750 
Q 2619 4750 2861 4703 
Q 3103 4656 3366 4563 
z
" transform="scale(0.015625)"/>
       </defs>
       <use xlink:href="#DejaVuSans-32"/>
       <use xlink:href="#DejaVuSans-30" transform="translate(63.623047 0)"/>
       <use xlink:href="#DejaVuSans-31" transform="translate(127.246094 0)"/>
       <use xlink:href="#DejaVuSans-36" transform="translate(190.869141 0)"/>
      </g>
     </g>
    </g>
    <g id="xtick_3">
     <g id="line2d_5">
      <path d="M 274.215942 299.570625 
L 274.215942 22.370625 
" clip-path="url(#p1b3478e040)" style="fill: none; stroke-dasharray: 2.22,0.96; stroke-dashoffset: 0; stroke: #b0b0b0; stroke-opacity: 0.5; stroke-width: 0.6"/>
     </g>
     <g id="line2d_6">
      <g>
       <use xlink:href="#maa73b6cb08" x="274.215942" y="299.570625" style="stroke: #000000; stroke-width: 0.8"/>
      </g>
     </g>
     <g id="text_3">
      <!-- 2018 -->
      <g transform="translate(261.490942 314.169063) scale(0.1 -0.1)">
       <defs>
        <path id="DejaVuSans-38" d="M 2034 2216 
Q 1584 2216 1326 1975 
Q 1069 1734 1069 1313 
Q 1069 891 1326 650 
Q 1584 409 2034 409 
Q 2484 409 2743 651 
Q 3003 894 3003 1313 
Q 3003 1734 2745 1975 
Q 2488 2216 2034 2216 
z
M 1403 2484 
Q 997 2584 770 2862 
Q 544 3141 544 3541 
Q 544 4100 942 4425 
Q 1341 4750 2034 4750 
Q 2731 4750 3128 4425 
Q 3525 4100 3525 3541 
Q 3525 3141 3298 2862 
Q 3072 2584 2669 2484 
Q 3125 2378 3379 2068 
Q 3634 1759 3634 1313 
Q 3634 634 3220 271 
Q 2806 -91 2034 -91 
Q 1263 -91 848 271 
Q 434 634 434 1313 
Q 434 1759 690 2068 
Q 947 2378 1403 2484 
z
M 1172 3481 
Q 1172 3119 1398 2916 
Q 1625 2713 2034 2713 
Q 2441 2713 2670 2916 
Q 2900 3119 2900 3481 
Q 2900 3844 2670 4047 
Q 2441 4250 2034 4250 
Q 1625 4250 1398 4047 
Q 1172 3844 1172 3481 
z
" transform="scale(0.015625)"/>
       </defs>
       <use xlink:href="#DejaVuSans-32"/>
       <use xlink:href="#DejaVuSans-30" transform="translate(63.623047 0)"/>
       <use xlink:href="#DejaVuSans-31" transform="translate(127.246094 0)"/>
       <use xlink:href="#DejaVuSans-38" transform="translate(190.869141 0)"/>
      </g>
     </g>
    </g>
    <g id="xtick_4">
     <g id="line2d_7">
      <path d="M 379.268167 299.570625 
L 379.268167 22.370625 
" clip-path="url(#p1b3478e040)" style="fill: none; stroke-dasharray: 2.22,0.96; stroke-dashoffset: 0; stroke: #b0b0b0; stroke-opacity: 0.5; stroke-width: 0.6"/>
     </g>
     <g id="line2d_8">
      <g>
       <use xlink:href="#maa73b6cb08" x="379.268167" y="299.570625" style="stroke: #000000; stroke-width: 0.8"/>
      </g>
     </g>
     <g id="text_4">
      <!-- 2020 -->
      <g transform="translate(366.543167 314.169063) scale(0.1 -0.1)">
       <use xlink:href="#DejaVuSans-32"/>
       <use xlink:href="#DejaVuSans-30" transform="translate(63.623047 0)"/>
       <use xlink:href="#DejaVuSans-32" transform="translate(127.246094 0)"/>
       <use xlink:href="#DejaVuSans-30" transform="translate(190.869141 0)"/>
      </g>
     </g>
    </g>
    <g id="xtick_5">
     <g id="line2d_9">
      <path d="M 484.464298 299.570625 
L 484.464298 22.370625 
" clip-path="url(#p1b3478e040)" style="fill: none; stroke-dasharray: 2.22,0.96; stroke-dashoffset: 0; stroke: #b0b0b0; stroke-opacity: 0.5; stroke-width: 0.6"/>
     </g>
     <g id="line2d_10">
      <g>
       <use xlink:href="#maa73b6cb08" x="484.464298" y="299.570625" style="stroke: #000000; stroke-width: 0.8"/>
      </g>
     </g>
     <g id="text_5">
      <!-- 2022 -->
      <g transform="translate(471.739298 314.169063) scale(0.1 -0.1)">
       <use xlink:href="#DejaVuSans-32"/>
       <use xlink:href="#DejaVuSans-30" transform="translate(63.623047 0)"/>
       <use xlink:href="#DejaVuSans-32" transform="translate(127.246094 0)"/>
       <use xlink:href="#DejaVuSans-32" transform="translate(190.869141 0)"/>
      </g>
     </g>
    </g>
    <g id="xtick_6">
     <g id="line2d_11">
      <path d="M 589.516523 299.570625 
L 589.516523 22.370625 
" clip-path="url(#p1b3478e040)" style="fill: none; stroke-dasharray: 2.22,0.96; stroke-dashoffset: 0; stroke: #b0b0b0; stroke-opacity: 0.5; stroke-width: 0.6"/>
     </g>
     <g id="line2d_12">
      <g>
       <use xlink:href="#maa73b6cb08" x="589.516523" y="299.570625" style="stroke: #000000; stroke-width: 0.8"/>
      </g>
     </g>
     <g id="text_6">
      <!-- 2024 -->
      <g transform="translate(576.791523 314.169063) scale(0.1 -0.1)">
       <use xlink:href="#DejaVuSans-32"/>
       <use xlink:href="#DejaVuSans-30" transform="translate(63.623047 0)"/>
       <use xlink:href="#DejaVuSans-32" transform="translate(127.246094 0)"/>
       <use xlink:href="#DejaVuSans-34" transform="translate(190.869141 0)"/>
      </g>
     </g>
    </g>
    <g id="xtick_7">
     <g id="line2d_13">
      <path d="M 694.712654 299.570625 
L 694.712654 22.370625 
" clip-path="url(#p1b3478e040)" style="fill: none; stroke-dasharray: 2.22,0.96; stroke-dashoffset: 0; stroke: #b0b0b0; stroke-opacity: 0.5; stroke-width: 0.6"/>
     </g>
     <g id="line2d_14">
      <g>
       <use xlink:href="#maa73b6cb08" x="694.712654" y="299.570625" style="stroke: #000000; stroke-width: 0.8"/>
      </g>
     </g>
     <g id="text_7">
      <!-- 2026 -->
      <g transform="translate(681.987654 314.169063) scale(0.1 -0.1)">
       <use xlink:href="#DejaVuSans-32"/>
       <use xlink:href="#DejaVuSans-30" transform="translate(63.623047 0)"/>
       <use xlink:href="#DejaVuSans-32" transform="translate(127.246094 0)"/>
       <use xlink:href="#DejaVuSans-36" transform="translate(190.869141 0)"/>
      </g>
     </g>
    </g>
    <g id="text_8">
     <!-- Date -->
     <g transform="translate(360.697656 327.847188) scale(0.1 -0.1)">
      <defs>
       <path id="DejaVuSans-44" d="M 1259 4147 
L 1259 519 
L 2022 519 
Q 2988 519 3436 956 
Q 3884 1394 3884 2338 
Q 3884 3275 3436 3711 
Q 2988 4147 2022 4147 
L 1259 4147 
z
M 628 4666 
L 1925 4666 
Q 3281 4666 3915 4102 
Q 4550 3538 4550 2338 
Q 4550 1131 3912 565 
Q 3275 0 1925 0 
L 628 0 
L 628 4666 
z
" transform="scale(0.015625)"/>
       <path id="DejaVuSans-61" d="M 2194 1759 
Q 1497 1759 1228 1600 
Q 959 1441 959 1056 
Q 959 750 1161 570 
Q 1363 391 1709 391 
Q 2188 391 2477 730 
Q 2766 1069 2766 1631 
L 2766 1759 
L 2194 1759 
z
M 3341 1997 
L 3341 0 
L 2766 0 
L 2766 531 
Q 2569 213 2275 61 
Q 1981 -91 1556 -91 
Q 1019 -91 701 211 
Q 384 513 384 1019 
Q 384 1609 779 1909 
Q 1175 2209 1959 2209 
L 2766 2209 
L 2766 2266 
Q 2766 2663 2505 2880 
Q 2244 3097 1772 3097 
Q 1472 3097 1187 3025 
Q 903 2953 641 2809 
L 641 3341 
Q 956 3463 1253 3523 
Q 1550 3584 1831 3584 
Q 2591 3584 2966 3190 
Q 3341 2797 3341 1997 
z
" transform="scale(0.015625)"/>
       <path id="DejaVuSans-74" d="M 1172 4494 
L 1172 3500 
L 2356 3500 
L 2356 3053 
L 1172 3053 
L 1172 1153 
Q 1172 725 1289 603 
Q 1406 481 1766 481 
L 2356 481 
L 2356 0 
L 1766 0 
Q 1100 0 847 248 
Q 594 497 594 1153 
L 594 3053 
L 172 3053 
L 172 3500 
L 594 3500 
L 594 4494 
L 1172 4494 
z
" transform="scale(0.015625)"/>
       <path id="DejaVuSans-65" d="M 3597 1894 
L 3597 1613 
L 953 1613 
Q 991 1019 1311 708 
Q 1631 397 2203 397 
Q 2534 397 2845 478 
Q 3156 559 3463 722 
L 3463 178 
Q 3153 47 2828 -22 
Q 2503 -91 2169 -91 
Q 1331 -91 842 396 
Q 353 884 353 1716 
Q 353 2575 817 3079 
Q 1281 3584 2069 3584 
Q 2775 3584 3186 3129 
Q 3597 2675 3597 1894 
z
M 3022 2063 
Q 3016 2534 2758 2815 
Q 2500 3097 2075 3097 
Q 1594 3097 1305 2825 
Q 1016 2553 972 2059 
L 3022 2063 
z
" transform="scale(0.015625)"/>
      </defs>
      <use xlink:href="#DejaVuSans-44"/>
      <use xlink:href="#DejaVuSans-61" transform="translate(77.001953 0)"/>
      <use xlink:href="#DejaVuSans-74" transform="translate(138.28125 0)"/>
      <use xlink:href="#DejaVuSans-65" transform="translate(177.490234 0)"/>
     </g>
    </g>
   </g>
   <g id="matplotlib.axis_2">
    <g id="ytick_1">
     <g id="line2d_15">
      <path d="M 37.848438 287.133399 
L 707.448438 287.133399 
" clip-path="url(#p1b3478e040)" style="fill: none; stroke-dasharray: 2.22,0.96; stroke-dashoffset: 0; stroke: #b0b0b0; stroke-opacity: 0.5; stroke-width: 0.6"/>
     </g>
     <g id="line2d_16">
      <defs>
       <path id="m0173d2fa64" d="M 0 0 
L -3.5 0 
" style="stroke: #000000; stroke-width: 0.8"/>
      </defs>
      <g>
       <use xlink:href="#m0173d2fa64" x="37.848438" y="287.133399" style="stroke: #000000; stroke-width: 0.8"/>
      </g>
     </g>
     <g id="text_9">
      <!-- -2 -->
      <g transform="translate(20.878125 290.932617) scale(0.1 -0.1)">
       <defs>
        <path id="DejaVuSans-2d" d="M 313 2009 
L 1997 2009 
L 1997 1497 
L 313 1497 
L 313 2009 
z
" transform="scale(0.015625)"/>
       </defs>
       <use xlink:href="#DejaVuSans-2d"/>
       <use xlink:href="#DejaVuSans-32" transform="translate(36.083984 0)"/>
      </g>
     </g>
    </g>
    <g id="ytick_2">
     <g id="line2d_17">
      <path d="M 37.848438 236.772004 
L 707.448438 236.772004 
" clip-path="url(#p1b3478e040)" style="fill: none; stroke-dasharray: 2.22,0.96; stroke-dashoffset: 0; stroke: #b0b0b0; stroke-opacity: 0.5; stroke-width: 0.6"/>
     </g>
     <g id="line2d_18">
      <g>
       <use xlink:href="#m0173d2fa64" x="37.848438" y="236.772004" style="stroke: #000000; stroke-width: 0.8"/>
      </g>
     </g>
     <g id="text_10">
      <!-- -1 -->
      <g transform="translate(20.878125 240.571223) scale(0.1 -0.1)">
       <use xlink:href="#DejaVuSans-2d"/>
       <use xlink:href="#DejaVuSans-31" transform="translate(36.083984 0)"/>
      </g>
     </g>
    </g>
    <g id="ytick_3">
     <g id="line2d_19">
      <path d="M 37.848438 186.41061 
L 707.448438 186.41061 
" clip-path="url(#p1b3478e040)" style="fill: none; stroke-dasharray: 2.22,0.96; stroke-dashoffset: 0; stroke: #b0b0b0; stroke-opacity: 0.5; stroke-width: 0.6"/>
     </g>
     <g id="line2d_20">
      <g>
       <use xlink:href="#m0173d2fa64" x="37.848438" y="186.41061" style="stroke: #000000; stroke-width: 0.8"/>
      </g>
     </g>
     <g id="text_11">
      <!-- 0 -->
      <g transform="translate(24.485938 190.209828) scale(0.1 -0.1)">
       <use xlink:href="#DejaVuSans-30"/>
      </g>
     </g>
    </g>
    <g id="ytick_4">
     <g id="line2d_21">
      <path d="M 37.848438 136.049215 
L 707.448438 136.049215 
" clip-path="url(#p1b3478e040)" style="fill: none; stroke-dasharray: 2.22,0.96; stroke-dashoffset: 0; stroke: #b0b0b0; stroke-opacity: 0.5; stroke-width: 0.6"/>
     </g>
     <g id="line2d_22">
      <g>
       <use xlink:href="#m0173d2fa64" x="37.848438" y="136.049215" style="stroke: #000000; stroke-width: 0.8"/>
      </g>
     </g>
     <g id="text_12">
      <!-- 1 -->
      <g transform="translate(24.485938 139.848434) scale(0.1 -0.1)">
       <use xlink:href="#DejaVuSans-31"/>
      </g>
     </g>
    </g>
    <g id="ytick_5">
     <g id="line2d_23">
      <path d="M 37.848438 85.68782 
L 707.448438 85.68782 
" clip-path="url(#p1b3478e040)" style="fill: none; stroke-dasharray: 2.22,0.96; stroke-dashoffset: 0; stroke: #b0b0b0; stroke-opacity: 0.5; stroke-width: 0.6"/>
     </g>
     <g id="line2d_24">
      <g>
       <use xlink:href="#m0173d2fa64" x="37.848438" y="85.68782" style="stroke: #000000; stroke-width: 0.8"/>
      </g>
     </g>
     <g id="text_13">
      <!-- 2 -->
      <g transform="translate(24.485938 89.487039) scale(0.1 -0.1)">
       <use xlink:href="#DejaVuSans-32"/>
      </g>
     </g>
    </g>
    <g id="ytick_6">
     <g id="line2d_25">
      <path d="M 37.848438 35.326426 
L 707.448438 35.326426 
" clip-path="url(#p1b3478e040)" style="fill: none; stroke-dasharray: 2.22,0.96; stroke-dashoffset: 0; stroke: #b0b0b0; stroke-opacity: 0.5; stroke-width: 0.6"/>
     </g>
     <g id="line2d_26">
      <g>
       <use xlink:href="#m0173d2fa64" x="37.848438" y="35.326426" style="stroke: #000000; stroke-width: 0.8"/>
      </g>
     </g>
     <g id="text_14">
      <!-- 3 -->
      <g transform="translate(24.485938 39.125645) scale(0.1 -0.1)">
       <defs>
        <path id="DejaVuSans-33" d="M 2597 2516 
Q 3050 2419 3304 2112 
Q 3559 1806 3559 1356 
Q 3559 666 3084 287 
Q 2609 -91 1734 -91 
Q 1441 -91 1130 -33 
Q 819 25 488 141 
L 488 750 
Q 750 597 1062 519 
Q 1375 441 1716 441 
Q 2309 441 2620 675 
Q 2931 909 2931 1356 
Q 2931 1769 2642 2001 
Q 2353 2234 1838 2234 
L 1294 2234 
L 1294 2753 
L 1863 2753 
Q 2328 2753 2575 2939 
Q 2822 3125 2822 3475 
Q 2822 3834 2567 4026 
Q 2313 4219 1838 4219 
Q 1578 4219 1281 4162 
Q 984 4106 628 3988 
L 628 4550 
Q 988 4650 1302 4700 
Q 1616 4750 1894 4750 
Q 2613 4750 3031 4423 
Q 3450 4097 3450 3541 
Q 3450 3153 3228 2886 
Q 3006 2619 2597 2516 
z
" transform="scale(0.015625)"/>
       </defs>
       <use xlink:href="#DejaVuSans-33"/>
      </g>
     </g>
    </g>
    <g id="text_15">
     <!-- Z-score -->
     <g transform="translate(14.798438 179.544844) rotate(-90) scale(0.1 -0.1)">
      <defs>
       <path id="DejaVuSans-5a" d="M 359 4666 
L 4025 4666 
L 4025 4184 
L 1075 531 
L 4097 531 
L 4097 0 
L 288 0 
L 288 481 
L 3238 4134 
L 359 4134 
L 359 4666 
z
" transform="scale(0.015625)"/>
       <path id="DejaVuSans-73" d="M 2834 3397 
L 2834 2853 
Q 2591 2978 2328 3040 
Q 2066 3103 1784 3103 
Q 1356 3103 1142 2972 
Q 928 2841 928 2578 
Q 928 2378 1081 2264 
Q 1234 2150 1697 2047 
L 1894 2003 
Q 2506 1872 2764 1633 
Q 3022 1394 3022 966 
Q 3022 478 2636 193 
Q 2250 -91 1575 -91 
Q 1294 -91 989 -36 
Q 684 19 347 128 
L 347 722 
Q 666 556 975 473 
Q 1284 391 1588 391 
Q 1994 391 2212 530 
Q 2431 669 2431 922 
Q 2431 1156 2273 1281 
Q 2116 1406 1581 1522 
L 1381 1569 
Q 847 1681 609 1914 
Q 372 2147 372 2553 
Q 372 3047 722 3315 
Q 1072 3584 1716 3584 
Q 2034 3584 2315 3537 
Q 2597 3491 2834 3397 
z
" transform="scale(0.015625)"/>
       <path id="DejaVuSans-63" d="M 3122 3366 
L 3122 2828 
Q 2878 2963 2633 3030 
Q 2388 3097 2138 3097 
Q 1578 3097 1268 2742 
Q 959 2388 959 1747 
Q 959 1106 1268 751 
Q 1578 397 2138 397 
Q 2388 397 2633 464 
Q 2878 531 3122 666 
L 3122 134 
Q 2881 22 2623 -34 
Q 2366 -91 2075 -91 
Q 1284 -91 818 406 
Q 353 903 353 1747 
Q 353 2603 823 3093 
Q 1294 3584 2113 3584 
Q 2378 3584 2631 3529 
Q 2884 3475 3122 3366 
z
" transform="scale(0.015625)"/>
       <path id="DejaVuSans-6f" d="M 1959 3097 
Q 1497 3097 1228 2736 
Q 959 2375 959 1747 
Q 959 1119 1226 758 
Q 1494 397 1959 397 
Q 2419 397 2687 759 
Q 2956 1122 2956 1747 
Q 2956 2369 2687 2733 
Q 2419 3097 1959 3097 
z
M 1959 3584 
Q 2709 3584 3137 3096 
Q 3566 2609 3566 1747 
Q 3566 888 3137 398 
Q 2709 -91 1959 -91 
Q 1206 -91 779 398 
Q 353 888 353 1747 
Q 353 2609 779 3096 
Q 1206 3584 1959 3584 
z
" transform="scale(0.015625)"/>
       <path id="DejaVuSans-72" d="M 2631 2963 
Q 2534 3019 2420 3045 
Q 2306 3072 2169 3072 
Q 1681 3072 1420 2755 
Q 1159 2438 1159 1844 
L 1159 0 
L 581 0 
L 581 3500 
L 1159 3500 
L 1159 2956 
Q 1341 3275 1631 3429 
Q 1922 3584 2338 3584 
Q 2397 3584 2469 3576 
Q 2541 3569 2628 3553 
L 2631 2963 
z
" transform="scale(0.015625)"/>
      </defs>
      <use xlink:href="#DejaVuSans-5a"/>
      <use xlink:href="#DejaVuSans-2d" transform="translate(66.755859 0)"/>
      <use xlink:href="#DejaVuSans-73" transform="translate(102.839844 0)"/>
      <use xlink:href="#DejaVuSans-63" transform="translate(154.939453 0)"/>
      <use xlink:href="#DejaVuSans-6f" transform="translate(209.919922 0)"/>
      <use xlink:href="#DejaVuSans-72" transform="translate(271.101562 0)"/>
      <use xlink:href="#DejaVuSans-65" transform="translate(309.964844 0)"/>
     </g>
    </g>
   </g>
   <g id="line2d_27">
    <path d="M 68.284801 225.141508 
L 72.314202 158.27109 
L 76.775323 55.103304 
L 81.092538 87.519412 
L 85.55366 57.997987 
L 89.870875 66.205008 
L 94.331996 125.421322 
L 98.793118 86.316004 
L 103.110333 61.478111 
L 107.571455 40.413062 
L 111.88867 103.488952 
L 116.349791 220.143573 
L 120.810913 185.179711 
L 124.840314 255.064068 
L 129.301436 263.78064 
L 133.61865 93.428033 
L 138.079772 34.970625 
L 142.396987 98.209138 
L 146.858109 110.264894 
L 151.319231 127.13428 
L 155.636445 120.423387 
L 160.097567 149.131699 
L 164.414782 142.702685 
L 168.875904 152.351627 
L 173.337026 156.818328 
L 177.510333 148.795612 
L 181.971455 153.305679 
L 186.28867 156.90506 
L 190.749791 150.194167 
L 195.067006 152.969592 
L 199.528128 154.476562 
L 203.98925 155.625762 
L 208.306465 158.943263 
L 212.767586 176.387249 
L 217.084801 179.596335 
L 221.545923 212.966495 
L 226.007045 176.593237 
L 234.497567 262.512184 
L 238.814782 245.5127 
L 243.275904 240.222045 
L 247.593118 261.254569 
L 252.05424 246.249923 
L 256.515362 271.315488 
L 260.832577 262.241146 
L 265.293699 250.97682 
L 269.610913 263.043418 
L 274.072035 286.970625 
L 278.533157 237.175581 
L 282.562557 219.612339 
L 287.023679 243.084203 
L 291.340894 283.002633 
L 295.802016 231.809035 
L 300.119231 248.60253 
L 304.580352 182.881312 
L 309.041474 163.702685 
L 313.358689 183.58601 
L 317.819811 174.110532 
L 322.137026 177.894218 
L 326.598147 226.691843 
L 331.059269 166.499794 
L 335.08867 166.890088 
L 339.549791 188.573103 
L 343.867006 184.37744 
L 348.328128 173.340785 
L 352.645343 157.230305 
L 357.106465 170.413578 
L 361.567586 198.699071 
L 365.884801 197.679969 
L 370.345923 205.962881 
L 374.663138 199.609758 
L 379.12426 188.876665 
L 383.585381 197.224626 
L 387.758689 174.685132 
L 392.219811 139.851368 
L 396.537026 110.88286 
L 400.998147 115.945844 
L 405.315362 166.998503 
L 409.776484 182.5127 
L 414.237606 197.473981 
L 418.55482 200.119309 
L 423.015942 219.18952 
L 427.333157 224.783738 
L 431.794279 194.872019 
L 436.255401 225.206557 
L 440.284801 204.531802 
L 444.745923 179.618018 
L 449.063138 172.560197 
L 453.52426 176.961849 
L 457.841474 204.271606 
L 462.302596 184.637636 
L 466.763718 182.29587 
L 471.080933 197.853433 
L 475.542055 185.721787 
L 479.859269 189.050129 
L 484.320391 223.244244 
L 488.781513 205.876149 
L 492.810913 197.788384 
L 497.272035 211.13428 
L 501.58925 167.898348 
L 506.050372 145.304647 
L 510.367586 159.366082 
L 514.828708 137.173516 
L 519.28983 131.080589 
L 523.607045 148.286061 
L 528.068167 157.98921 
L 532.385381 171.790449 
L 536.846503 215.427517 
L 541.307625 192.378472 
L 545.337026 219.850852 
L 549.798147 233.652091 
L 554.115362 211.210171 
L 558.576484 178.642282 
L 562.893699 210.418741 
L 567.35482 187.770832 
L 571.815942 196.303098 
L 576.133157 213.356789 
L 580.594279 237.078008 
L 584.911494 239.452298 
L 589.372615 255.183325 
L 593.833737 225.716108 
L 598.007045 203.946361 
L 602.468167 213.139959 
L 606.785381 196.693392 
L 611.246503 187.337171 
L 615.563718 199.945844 
L 620.02484 200.249407 
L 624.485962 198.926743 
L 628.803176 203.837946 
L 633.264298 227.786836 
L 637.581513 219.102788 
L 642.042635 228.556583 
L 646.503757 270.805937 
L 650.533157 247.843624 
L 654.994279 234.194167 
L 659.311494 213.931389 
L 663.772615 209.90919 
L 668.08983 212.06665 
L 672.550952 200.834848 
L 677.012074 195.695973 
L 677.012074 195.695973 
" clip-path="url(#p1b3478e040)" style="fill: none; stroke: #f59e0b; stroke-width: 2; stroke-linecap: square"/>
   </g>
   <g id="line2d_28">
    <path d="M 68.284801 243.108033 
L 72.314202 248.676003 
L 76.775323 258.436584 
L 81.092538 262.500682 
L 85.55366 259.317943 
L 89.870875 251.42672 
L 94.331996 256.910838 
L 98.793118 249.62572 
L 103.110333 239.016591 
L 107.571455 241.532158 
L 111.88867 236.284102 
L 116.349791 245.315534 
L 120.810913 226.282902 
L 124.840314 203.728476 
L 129.301436 166.621133 
L 133.61865 118.978487 
L 138.079772 56.549595 
L 142.396987 118.912864 
L 146.858109 147.966748 
L 151.319231 197.455054 
L 155.636445 189.634923 
L 160.097567 153.577555 
L 164.414782 135.86833 
L 168.875904 132.0886 
L 173.337026 197.710257 
L 177.510333 208.093349 
L 181.971455 175.451137 
L 186.28867 184.524494 
L 190.749791 182.605008 
L 195.067006 176.408146 
L 199.528128 186.012871 
L 203.98925 179.692054 
L 208.306465 183.50733 
L 212.767586 182.608653 
L 217.084801 180.485916 
L 221.545923 200.627767 
L 226.007045 207.539195 
L 230.036445 203.808683 
L 234.497567 205.615151 
L 238.814782 210.774798 
L 243.275904 218.704301 
L 247.593118 213.751551 
L 252.05424 221.204374 
L 256.515362 210.897842 
L 260.832577 209.293712 
L 265.293699 209.037598 
L 269.610913 218.105487 
L 278.533157 221.317392 
L 282.562557 219.624853 
L 287.023679 206.240397 
L 291.340894 214.888114 
L 295.802016 220.526264 
L 300.119231 233.015688 
L 304.580352 237.158171 
L 309.041474 248.647748 
L 313.358689 250.822437 
L 317.819811 263.19702 
L 322.137026 258.291665 
L 326.598147 265.479259 
L 331.059269 267.533639 
L 335.08867 239.489627 
L 339.549791 225.100768 
L 343.867006 231.459865 
L 348.328128 244.230923 
L 352.645343 241.692571 
L 357.106465 236.326028 
L 361.567586 232.633796 
L 365.884801 231.116253 
L 370.345923 227.127804 
L 374.663138 227.712035 
L 379.12426 215.569869 
L 383.585381 203.75582 
L 387.758689 190.646618 
L 392.219811 208.843462 
L 396.537026 190.841666 
L 400.998147 189.270348 
L 409.776484 124.674058 
L 414.237606 130.788891 
L 418.55482 144.784009 
L 423.015942 137.392253 
L 427.333157 139.576968 
L 431.794279 109.101242 
L 436.255401 94.281273 
L 440.284801 113.854387 
L 444.745923 128.037262 
L 449.063138 97.695517 
L 453.52426 77.856263 
L 457.841474 62.534092 
L 462.302596 65.90641 
L 466.763718 86.510359 
L 471.080933 83.727742 
L 475.542055 74.064684 
L 479.859269 60.856136 
L 484.320391 76.616708 
L 488.781513 114.3256 
L 492.810913 116.843901 
L 497.272035 137.061401 
L 501.58925 168.082167 
L 506.050372 160.249276 
L 510.367586 123.288674 
L 514.828708 136.062466 
L 519.28983 145.180484 
L 523.607045 170.831973 
L 528.068167 173.009397 
L 532.385381 165.696936 
L 536.846503 165.563866 
L 541.307625 144.229855 
L 545.337026 158.066384 
L 549.798147 160.757858 
L 554.115362 167.573585 
L 558.576484 179.541667 
L 567.35482 175.59879 
L 571.815942 187.820251 
L 576.133157 196.813402 
L 580.594279 200.06541 
L 584.911494 204.22521 
L 589.372615 207.070717 
L 593.833737 236.05442 
L 598.007045 214.757778 
L 602.468167 213.739703 
L 606.785381 210.076637 
L 611.246503 214.932774 
L 615.563718 226.023142 
L 620.02484 225.593855 
L 624.485962 235.408211 
L 628.803176 181.21142 
L 633.264298 182.180278 
L 637.581513 176.753581 
L 642.042635 184.263823 
L 646.503757 191.352982 
L 650.533157 181.639796 
L 654.994279 187.71817 
L 659.311494 201.906513 
L 663.772615 197.790463 
L 668.08983 183.223873 
L 672.550952 167.246379 
L 677.012074 116.040014 
L 677.012074 116.040014 
" clip-path="url(#p1b3478e040)" style="fill: none; stroke: #ef4444; stroke-width: 2; stroke-linecap: square"/>
   </g>
   <g id="line2d_29">
    <path d="M 116.349791 65.443416 
L 120.810913 60.468869 
L 124.840314 72.517908 
L 129.301436 98.494598 
L 133.61865 99.230118 
L 138.079772 96.363613 
L 142.396987 100.347569 
L 146.858109 98.460858 
L 151.319231 103.542022 
L 155.636445 110.879681 
L 160.097567 124.413256 
L 164.414782 129.294682 
L 168.875904 120.855767 
L 173.337026 117.325269 
L 177.510333 104.096699 
L 181.971455 90.344492 
L 186.28867 98.246275 
L 190.749791 112.589598 
L 195.067006 119.406319 
L 199.528128 124.909901 
L 203.98925 128.456594 
L 208.306465 133.251647 
L 212.767586 136.644488 
L 217.084801 141.237104 
L 221.545923 148.782598 
L 226.007045 151.24423 
L 230.036445 159.826201 
L 234.497567 173.420507 
L 243.275904 195.657515 
L 247.593118 209.137106 
L 252.05424 220.56129 
L 256.515362 234.962644 
L 260.832577 247.82143 
L 265.293699 257.106531 
L 269.610913 267.494238 
L 274.072035 276.706462 
L 278.533157 284.247908 
L 282.562557 284.481385 
L 287.023679 282.06294 
L 291.340894 286.729783 
L 295.802016 285.68251 
L 300.119231 284.107551 
L 304.580352 276.219264 
L 309.041474 262.823346 
L 313.358689 253.032153 
L 317.819811 243.46364 
L 322.137026 232.864049 
L 326.598147 225.360392 
L 331.059269 216.562488 
L 335.08867 209.999487 
L 339.549791 203.213806 
L 343.867006 190.936688 
L 348.328128 183.658411 
L 352.645343 172.284162 
L 357.106465 170.732146 
L 361.567586 175.088586 
L 365.884801 176.843038 
L 370.345923 180.8081 
L 374.663138 183.511307 
L 379.12426 178.803976 
L 383.585381 182.628682 
L 387.758689 183.599029 
L 392.219811 177.534023 
L 396.537026 168.385229 
L 400.998147 161.240559 
L 405.315362 162.45653 
L 409.776484 163.962659 
L 414.237606 163.810157 
L 418.55482 164.113812 
L 423.015942 165.760298 
L 427.333157 168.89402 
L 431.794279 169.640337 
L 436.255401 173.123599 
L 440.284801 176.83899 
L 444.745923 181.789244 
L 449.063138 189.466997 
L 453.52426 197.062426 
L 457.841474 201.702277 
L 462.302596 201.966795 
L 466.763718 200.077385 
L 471.080933 199.795323 
L 475.542055 195.629173 
L 479.859269 191.180962 
L 484.320391 194.71281 
L 488.781513 192.306511 
L 492.810913 191.467073 
L 497.272035 195.390298 
L 501.58925 194.809979 
L 506.050372 190.869209 
L 514.828708 179.370799 
L 523.607045 166.825116 
L 528.068167 163.372894 
L 532.385381 161.224364 
L 536.846503 160.251318 
L 541.307625 158.571093 
L 545.337026 161.317485 
L 549.798147 164.12056 
L 554.115362 169.512127 
L 558.576484 173.662081 
L 562.893699 180.017247 
L 567.35482 186.315731 
L 571.815942 194.434796 
L 576.133157 202.534968 
L 580.594279 212.380144 
L 584.911494 220.802864 
L 589.372615 225.751769 
L 593.833737 229.901724 
L 598.007045 227.921892 
L 602.468167 225.368489 
L 606.785381 223.561403 
L 611.246503 224.643765 
L 615.563718 223.340072 
L 620.02484 224.893437 
L 624.485962 225.220035 
L 633.264298 222.878516 
L 637.581513 220.345357 
L 642.042635 217.030792 
L 646.503757 222.64369 
L 650.533157 228.108134 
L 654.994279 230.729016 
L 659.311494 232.874846 
L 663.772615 235.684669 
L 668.08983 237.193497 
L 672.550952 237.266375 
L 677.012074 236.8642 
L 677.012074 236.8642 
" clip-path="url(#p1b3478e040)" style="fill: none; stroke: #1d4ed8; stroke-width: 2.4; stroke-linecap: square"/>
   </g>
   <g id="patch_3">
    <path d="M 37.848438 299.570625 
L 37.848438 22.370625 
" style="fill: none; stroke: #000000; stroke-width: 0.8; stroke-linejoin: miter; stroke-linecap: square"/>
   </g>
   <g id="patch_4">
    <path d="M 707.448438 299.570625 
L 707.448438 22.370625 
" style="fill: none; stroke: #000000; stroke-width: 0.8; stroke-linejoin: miter; stroke-linecap: square"/>
   </g>
   <g id="patch_5">
    <path d="M 37.848437 299.570625 
L 707.448438 299.570625 
" style="fill: none; stroke: #000000; stroke-width: 0.8; stroke-linejoin: miter; stroke-linecap: square"/>
   </g>
   <g id="patch_6">
    <path d="M 37.848437 22.370625 
L 707.448438 22.370625 
" style="fill: none; stroke: #000000; stroke-width: 0.8; stroke-linejoin: miter; stroke-linecap: square"/>
   </g>
   <g id="text_16">
    <!-- Gap vs ChiNext (Z) + Gap MA12 | 2014-01–2025-08 -->
    <g transform="translate(216.911875 16.370625) scale(0.12 -0.12)">
     <defs>
      <path id="DejaVuSans-47" d="M 3809 666 
L 3809 1919 
L 2778 1919 
L 2778 2438 
L 4434 2438 
L 4434 434 
Q 4069 175 3628 42 
Q 3188 -91 2688 -91 
Q 1594 -91 976 548 
Q 359 1188 359 2328 
Q 359 3472 976 4111 
Q 1594 4750 2688 4750 
Q 3144 4750 3555 4637 
Q 3966 4525 4313 4306 
L 4313 3634 
Q 3963 3931 3569 4081 
Q 3175 4231 2741 4231 
Q 1884 4231 1454 3753 
Q 1025 3275 1025 2328 
Q 1025 1384 1454 906 
Q 1884 428 2741 428 
Q 3075 428 3337 486 
Q 3600 544 3809 666 
z
" transform="scale(0.015625)"/>
      <path id="DejaVuSans-70" d="M 1159 525 
L 1159 -1331 
L 581 -1331 
L 581 3500 
L 1159 3500 
L 1159 2969 
Q 1341 3281 1617 3432 
Q 1894 3584 2278 3584 
Q 2916 3584 3314 3078 
Q 3713 2572 3713 1747 
Q 3713 922 3314 415 
Q 2916 -91 2278 -91 
Q 1894 -91 1617 61 
Q 1341 213 1159 525 
z
M 3116 1747 
Q 3116 2381 2855 2742 
Q 2594 3103 2138 3103 
Q 1681 3103 1420 2742 
Q 1159 2381 1159 1747 
Q 1159 1113 1420 752 
Q 1681 391 2138 391 
Q 2594 391 2855 752 
Q 3116 1113 3116 1747 
z
" transform="scale(0.015625)"/>
      <path id="DejaVuSans-20" transform="scale(0.015625)"/>
      <path id="DejaVuSans-76" d="M 191 3500 
L 800 3500 
L 1894 563 
L 2988 3500 
L 3597 3500 
L 2284 0 
L 1503 0 
L 191 3500 
z
" transform="scale(0.015625)"/>
      <path id="DejaVuSans-43" d="M 4122 4306 
L 4122 3641 
Q 3803 3938 3442 4084 
Q 3081 4231 2675 4231 
Q 1875 4231 1450 3742 
Q 1025 3253 1025 2328 
Q 1025 1406 1450 917 
Q 1875 428 2675 428 
Q 3081 428 3442 575 
Q 3803 722 4122 1019 
L 4122 359 
Q 3791 134 3420 21 
Q 3050 -91 2638 -91 
Q 1578 -91 968 557 
Q 359 1206 359 2328 
Q 359 3453 968 4101 
Q 1578 4750 2638 4750 
Q 3056 4750 3426 4639 
Q 3797 4528 4122 4306 
z
" transform="scale(0.015625)"/>
      <path id="DejaVuSans-68" d="M 3513 2113 
L 3513 0 
L 2938 0 
L 2938 2094 
Q 2938 2591 2744 2837 
Q 2550 3084 2163 3084 
Q 1697 3084 1428 2787 
Q 1159 2491 1159 1978 
L 1159 0 
L 581 0 
L 581 4863 
L 1159 4863 
L 1159 2956 
Q 1366 3272 1645 3428 
Q 1925 3584 2291 3584 
Q 2894 3584 3203 3211 
Q 3513 2838 3513 2113 
z
" transform="scale(0.015625)"/>
      <path id="DejaVuSans-69" d="M 603 3500 
L 1178 3500 
L 1178 0 
L 603 0 
L 603 3500 
z
M 603 4863 
L 1178 4863 
L 1178 4134 
L 603 4134 
L 603 4863 
z
" transform="scale(0.015625)"/>
      <path id="DejaVuSans-4e" d="M 628 4666 
L 1478 4666 
L 3547 763 
L 3547 4666 
L 4159 4666 
L 4159 0 
L 3309 0 
L 1241 3903 
L 1241 0 
L 628 0 
L 628 4666 
z
" transform="scale(0.015625)"/>
      <path id="DejaVuSans-78" d="M 3513 3500 
L 2247 1797 
L 3578 0 
L 2900 0 
L 1881 1375 
L 863 0 
L 184 0 
L 1544 1831 
L 300 3500 
L 978 3500 
L 1906 2253 
L 2834 3500 
L 3513 3500 
z
" transform="scale(0.015625)"/>
      <path id="DejaVuSans-28" d="M 1984 4856 
Q 1566 4138 1362 3434 
Q 1159 2731 1159 2009 
Q 1159 1288 1364 580 
Q 1569 -128 1984 -844 
L 1484 -844 
Q 1016 -109 783 600 
Q 550 1309 550 2009 
Q 550 2706 781 3412 
Q 1013 4119 1484 4856 
L 1984 4856 
z
" transform="scale(0.015625)"/>
      <path id="DejaVuSans-29" d="M 513 4856 
L 1013 4856 
Q 1481 4119 1714 3412 
Q 1947 2706 1947 2009 
Q 1947 1309 1714 600 
Q 1481 -109 1013 -844 
L 513 -844 
Q 928 -128 1133 580 
Q 1338 1288 1338 2009 
Q 1338 2731 1133 3434 
Q 928 4138 513 4856 
z
" transform="scale(0.015625)"/>
      <path id="DejaVuSans-2b" d="M 2944 4013 
L 2944 2272 
L 4684 2272 
L 4684 1741 
L 2944 1741 
L 2944 0 
L 2419 0 
L 2419 1741 
L 678 1741 
L 678 2272 
L 2419 2272 
L 2419 4013 
L 2944 4013 
z
" transform="scale(0.015625)"/>
      <path id="DejaVuSans-4d" d="M 628 4666 
L 1569 4666 
L 2759 1491 
L 3956 4666 
L 4897 4666 
L 4897 0 
L 4281 0 
L 4281 4097 
L 3078 897 
L 2444 897 
L 1241 4097 
L 1241 0 
L 628 0 
L 628 4666 
z
" transform="scale(0.015625)"/>
      <path id="DejaVuSans-41" d="M 2188 4044 
L 1331 1722 
L 3047 1722 
L 2188 4044 
z
M 1831 4666 
L 2547 4666 
L 4325 0 
L 3669 0 
L 3244 1197 
L 1141 1197 
L 716 0 
L 50 0 
L 1831 4666 
z
" transform="scale(0.015625)"/>
      <path id="DejaVuSans-7c" d="M 1344 4891 
L 1344 -1509 
L 813 -1509 
L 813 4891 
L 1344 4891 
z
" transform="scale(0.015625)"/>
      <path id="DejaVuSans-2013" d="M 313 1978 
L 2888 1978 
L 2888 1528 
L 313 1528 
L 313 1978 
z
" transform="scale(0.015625)"/>
      <path id="DejaVuSans-35" d="M 691 4666 
L 3169 4666 
L 3169 4134 
L 1269 4134 
L 1269 2991 
Q 1406 3038 1543 3061 
Q 1681 3084 1819 3084 
Q 2600 3084 3056 2656 
Q 3513 2228 3513 1497 
Q 3513 744 3044 326 
Q 2575 -91 1722 -91 
Q 1428 -91 1123 -41 
Q 819 9 494 109 
L 494 744 
Q 775 591 1075 516 
Q 1375 441 1709 441 
Q 2250 441 2565 725 
Q 2881 1009 2881 1497 
Q 2881 1984 2565 2268 
Q 2250 2553 1709 2553 
Q 1456 2553 1204 2497 
Q 953 2441 691 2322 
L 691 4666 
z
" transform="scale(0.015625)"/>
     </defs>
     <use xlink:href="#DejaVuSans-47"/>
     <use xlink:href="#DejaVuSans-61" transform="translate(77.490234 0)"/>
     <use xlink:href="#DejaVuSans-70" transform="translate(138.769531 0)"/>
     <use xlink:href="#DejaVuSans-20" transform="translate(202.246094 0)"/>
     <use xlink:href="#DejaVuSans-76" transform="translate(234.033203 0)"/>
     <use xlink:href="#DejaVuSans-73" transform="translate(293.212891 0)"/>
     <use xlink:href="#DejaVuSans-20" transform="translate(345.3125 0)"/>
     <use xlink:href="#DejaVuSans-43" transform="translate(377.099609 0)"/>
     <use xlink:href="#DejaVuSans-68" transform="translate(446.923828 0)"/>
     <use xlink:href="#DejaVuSans-69" transform="translate(510.302734 0)"/>
     <use xlink:href="#DejaVuSans-4e" transform="translate(538.085938 0)"/>
     <use xlink:href="#DejaVuSans-65" transform="translate(612.890625 0)"/>
     <use xlink:href="#DejaVuSans-78" transform="translate(672.664062 0)"/>
     <use xlink:href="#DejaVuSans-74" transform="translate(731.84375 0)"/>
     <use xlink:href="#DejaVuSans-20" transform="translate(771.052734 0)"/>
     <use xlink:href="#DejaVuSans-28" transform="translate(802.839844 0)"/>
     <use xlink:href="#DejaVuSans-5a" transform="translate(841.853516 0)"/>
     <use xlink:href="#DejaVuSans-29" transform="translate(910.359375 0)"/>
     <use xlink:href="#DejaVuSans-20" transform="translate(949.373047 0)"/>
     <use xlink:href="#DejaVuSans-2b" transform="translate(981.160156 0)"/>
     <use xlink:href="#DejaVuSans-20" transform="translate(1064.949219 0)"/>
     <use xlink:href="#DejaVuSans-47" transform="translate(1096.736328 0)"/>
     <use xlink:href="#DejaVuSans-61" transform="translate(1174.226562 0)"/>
     <use xlink:href="#DejaVuSans-70" transform="translate(1235.505859 0)"/>
     <use xlink:href="#DejaVuSans-20" transform="translate(1298.982422 0)"/>
     <use xlink:href="#DejaVuSans-4d" transform="translate(1330.769531 0)"/>
     <use xlink:href="#DejaVuSans-41" transform="translate(1417.048828 0)"/>
     <use xlink:href="#DejaVuSans-31" transform="translate(1485.457031 0)"/>
     <use xlink:href="#DejaVuSans-32" transform="translate(1549.080078 0)"/>
     <use xlink:href="#DejaVuSans-20" transform="translate(1612.703125 0)"/>
     <use xlink:href="#DejaVuSans-7c" transform="translate(1644.490234 0)"/>
     <use xlink:href="#DejaVuSans-20" transform="translate(1678.181641 0)"/>
     <use xlink:href="#DejaVuSans-32" transform="translate(1709.96875 0)"/>
     <use xlink:href="#DejaVuSans-30" transform="translate(1773.591797 0)"/>
     <use xlink:href="#DejaVuSans-31" transform="translate(1837.214844 0)"/>
     <use xlink:href="#DejaVuSans-34" transform="translate(1900.837891 0)"/>
     <use xlink:href="#DejaVuSans-2d" transform="translate(1964.460938 0)"/>
     <use xlink:href="#DejaVuSans-30" transform="translate(2000.544922 0)"/>
     <use xlink:href="#DejaVuSans-31" transform="translate(2064.167969 0)"/>
     <use xlink:href="#DejaVuSans-2013" transform="translate(2127.791016 0)"/>
     <use xlink:href="#DejaVuSans-32" transform="translate(2177.791016 0)"/>
     <use xlink:href="#DejaVuSans-30" transform="translate(2241.414062 0)"/>
     <use xlink:href="#DejaVuSans-32" transform="translate(2305.037109 0)"/>
     <use xlink:href="#DejaVuSans-35" transform="translate(2368.660156 0)"/>
     <use xlink:href="#DejaVuSans-2d" transform="translate(2432.283203 0)"/>
     <use xlink:href="#DejaVuSans-30" transform="translate(2468.367188 0)"/>
     <use xlink:href="#DejaVuSans-38" transform="translate(2531.990234 0)"/>
    </g>
   </g>
   <g id="legend_1">
    <g id="patch_7">
     <path d="M 606.823438 74.405 
L 700.448438 74.405 
Q 702.448438 74.405 702.448438 72.405 
L 702.448438 29.370625 
Q 702.448438 27.370625 700.448438 27.370625 
L 606.823438 27.370625 
Q 604.823438 27.370625 604.823438 29.370625 
L 604.823438 72.405 
Q 604.823438 74.405 606.823438 74.405 
z
" style="fill: #ffffff; opacity: 0.8; stroke: #cccccc; stroke-linejoin: miter"/>
    </g>
    <g id="line2d_30">
     <path d="M 608.823438 35.469062 
L 618.823438 35.469062 
L 628.823438 35.469062 
" style="fill: none; stroke: #f59e0b; stroke-width: 2; stroke-linecap: square"/>
    </g>
    <g id="text_17">
     <!-- Gap Z -->
     <g transform="translate(636.823438 38.969062) scale(0.1 -0.1)">
      <use xlink:href="#DejaVuSans-47"/>
      <use xlink:href="#DejaVuSans-61" transform="translate(77.490234 0)"/>
      <use xlink:href="#DejaVuSans-70" transform="translate(138.769531 0)"/>
      <use xlink:href="#DejaVuSans-20" transform="translate(202.246094 0)"/>
      <use xlink:href="#DejaVuSans-5a" transform="translate(234.033203 0)"/>
     </g>
    </g>
    <g id="line2d_31">
     <path d="M 608.823438 50.147187 
L 618.823438 50.147187 
L 628.823438 50.147187 
" style="fill: none; stroke: #ef4444; stroke-width: 2; stroke-linecap: square"/>
    </g>
    <g id="text_18">
     <!-- ChiNext Z -->
     <g transform="translate(636.823438 53.647187) scale(0.1 -0.1)">
      <use xlink:href="#DejaVuSans-43"/>
      <use xlink:href="#DejaVuSans-68" transform="translate(69.824219 0)"/>
      <use xlink:href="#DejaVuSans-69" transform="translate(133.203125 0)"/>
      <use xlink:href="#DejaVuSans-4e" transform="translate(160.986328 0)"/>
      <use xlink:href="#DejaVuSans-65" transform="translate(235.791016 0)"/>
      <use xlink:href="#DejaVuSans-78" transform="translate(295.564453 0)"/>
      <use xlink:href="#DejaVuSans-74" transform="translate(354.744141 0)"/>
      <use xlink:href="#DejaVuSans-20" transform="translate(393.953125 0)"/>
      <use xlink:href="#DejaVuSans-5a" transform="translate(425.740234 0)"/>
     </g>
    </g>
    <g id="line2d_32">
     <path d="M 608.823438 64.825312 
L 618.823438 64.825312 
L 628.823438 64.825312 
" style="fill: none; stroke: #1d4ed8; stroke-width: 2.4; stroke-linecap: square"/>
    </g>
    <g id="text_19">
     <!-- Gap MA12 Z -->
     <g transform="translate(636.823438 68.325312) scale(0.1 -0.1)">
      <use xlink:href="#DejaVuSans-47"/>
      <use xlink:href="#DejaVuSans-61" transform="translate(77.490234 0)"/>
      <use xlink:href="#DejaVuSans-70" transform="translate(138.769531 0)"/>
      <use xlink:href="#DejaVuSans-20" transform="translate(202.246094 0)"/>
      <use xlink:href="#DejaVuSans-4d" transform="translate(234.033203 0)"/>
      <use xlink:href="#DejaVuSans-41" transform="translate(320.3125 0)"/>
      <use xlink:href="#DejaVuSans-31" transform="translate(388.720703 0)"/>
      <use xlink:href="#DejaVuSans-32" transform="translate(452.34375 0)"/>
      <use xlink:href="#DejaVuSans-20" transform="translate(515.966797 0)"/>
      <use xlink:href="#DejaVuSans-5a" transform="translate(547.753906 0)"/>
     </g>
    </g>
   </g>
  </g>
 </g>
 <defs>
  <clipPath id="p1b3478e040">
   <rect x="37.848438" y="22.370625" width="669.6" height="277.2"/>
  </clipPath>
 </defs>
</svg>
