<?xml version="1.0" encoding="utf-8" standalone="no"?>
<!DOCTYPE svg PUBLIC "-//W3C//DTD SVG 1.1//EN"
  "http://www.w3.org/Graphics/SVG/1.1/DTD/svg11.dtd">
<svg xmlns:xlink="http://www.w3.org/1999/xlink" width="714.648438pt" height="337.126875pt" viewBox="0 0 714.648438 337.126875" xmlns="http://www.w3.org/2000/svg" version="1.1">
 <metadata>
  <rdf:RDF xmlns:dc="http://purl.org/dc/elements/1.1/" xmlns:cc="http://creativecommons.org/ns#" xmlns:rdf="http://www.w3.org/1999/02/22-rdf-syntax-ns#">
   <cc:Work>
    <dc:type rdf:resource="http://purl.org/dc/dcmitype/StillImage"/>
    <dc:date>2025-09-08T13:47:46.093156</dc:date>
    <dc:format>image/svg+xml</dc:format>
    <dc:creator>
     <cc:Agent>
      <dc:title>Matplotlib v3.10.6, https://matplotlib.org/</dc:title>
     </cc:Agent>
    </dc:creator>
   </cc:Work>
  </rdf:RDF>
 </metadata>
 <defs>
  <style type="text/css">*{stroke-linejoin: round; stroke-linecap: butt}</style>
 </defs>
 <g id="figure_1">
  <g id="patch_1">
   <path d="M 0 337.126875 
L 714.648438 337.126875 
L 714.648438 0 
L 0 0 
z
" style="fill: #ffffff"/>
  </g>
  <g id="axes_1">
   <g id="patch_2">
    <path d="M 37.848438 299.570625 
L 707.448438 299.570625 
L 707.448438 22.370625 
L 37.848438 22.370625 
z
" style="fill: #ffffff"/>
   </g>
   <g id="matplotlib.axis_1">
    <g id="xtick_1">
     <g id="line2d_1">
      <path d="M 63.997989 299.570625 
L 63.997989 22.370625 
" clip-path="url(#p020e64e826)" style="fill: none; stroke-dasharray: 2.22,0.96; stroke-dashoffset: 0; stroke: #b0b0b0; stroke-opacity: 0.5; stroke-width: 0.6"/>
     </g>
     <g id="line2d_2">
      <defs>
       <path id="m1315bbdacd" d="M 0 0 
L 0 3.5 
" style="stroke: #000000; stroke-width: 0.8"/>
      </defs>
      <g>
       <use xlink:href="#m1315bbdacd" x="63.997989" y="299.570625" style="stroke: #000000; stroke-width: 0.8"/>
      </g>
     </g>
     <g id="text_1">
      <!-- 2014 -->
      <g transform="translate(51.272989 314.169063) scale(0.1 -0.1)">
       <defs>
        <path id="DejaVuSans-32" d="M 1228 531 
L 3431 531 
L 3431 0 
L 469 0 
L 469 531 
Q 828 903 1448 1529 
Q 2069 2156 2228 2338 
Q 2531 2678 2651 2914 
Q 2772 3150 2772 3378 
Q 2772 3750 2511 3984 
Q 2250 4219 1831 4219 
Q 1534 4219 1204 4116 
Q 875 4013 500 3803 
L 500 4441 
Q 881 4594 1212 4672 
Q 1544 4750 1819 4750 
Q 2544 4750 2975 4387 
Q 3406 4025 3406 3419 
Q 3406 3131 3298 2873 
Q 3191 2616 2906 2266 
Q 2828 2175 2409 1742 
Q 1991 1309 1228 531 
z
" transform="scale(0.015625)"/>
        <path id="DejaVuSans-30" d="M 2034 4250 
Q 1547 4250 1301 3770 
Q 1056 3291 1056 2328 
Q 1056 1369 1301 889 
Q 1547 409 2034 409 
Q 2525 409 2770 889 
Q 3016 1369 3016 2328 
Q 3016 3291 2770 3770 
Q 2525 4250 2034 4250 
z
M 2034 4750 
Q 2819 4750 3233 4129 
Q 3647 3509 3647 2328 
Q 3647 1150 3233 529 
Q 2819 -91 2034 -91 
Q 1250 -91 836 529 
Q 422 1150 422 2328 
Q 422 3509 836 4129 
Q 1250 4750 2034 4750 
z
" transform="scale(0.015625)"/>
        <path id="DejaVuSans-31" d="M 794 531 
L 1825 531 
L 1825 4091 
L 703 3866 
L 703 4441 
L 1819 4666 
L 2450 4666 
L 2450 531 
L 3481 531 
L 3481 0 
L 794 0 
L 794 531 
z
" transform="scale(0.015625)"/>
        <path id="DejaVuSans-34" d="M 2419 4116 
L 825 1625 
L 2419 1625 
L 2419 4116 
z
M 2253 4666 
L 3047 4666 
L 3047 1625 
L 3713 1625 
L 3713 1100 
L 3047 1100 
L 3047 0 
L 2419 0 
L 2419 1100 
L 313 1100 
L 313 1709 
L 2253 4666 
z
" transform="scale(0.015625)"/>
       </defs>
       <use xlink:href="#DejaVuSans-32"/>
       <use xlink:href="#DejaVuSans-30" transform="translate(63.623047 0)"/>
       <use xlink:href="#DejaVuSans-31" transform="translate(127.246094 0)"/>
       <use xlink:href="#DejaVuSans-34" transform="translate(190.869141 0)"/>
      </g>
     </g>
    </g>
    <g id="xtick_2">
     <g id="line2d_3">
      <path d="M 168.310409 299.570625 
L 168.310409 22.370625 
" clip-path="url(#p020e64e826)" style="fill: none; stroke-dasharray: 2.22,0.96; stroke-dashoffset: 0; stroke: #b0b0b0; stroke-opacity: 0.5; stroke-width: 0.6"/>
     </g>
     <g id="line2d_4">
      <g>
       <use xlink:href="#m1315bbdacd" x="168.310409" y="299.570625" style="stroke: #000000; stroke-width: 0.8"/>
      </g>
     </g>
     <g id="text_2">
      <!-- 2016 -->
      <g transform="translate(155.585409 314.169063) scale(0.1 -0.1)">
       <defs>
        <path id="DejaVuSans-36" d="M 2113 2584 
Q 1688 2584 1439 2293 
Q 1191 2003 1191 1497 
Q 1191 994 1439 701 
Q 1688 409 2113 409 
Q 2538 409 2786 701 
Q 3034 994 3034 1497 
Q 3034 2003 2786 2293 
Q 2538 2584 2113 2584 
z
M 3366 4563 
L 3366 3988 
Q 3128 4100 2886 4159 
Q 2644 4219 2406 4219 
Q 1781 4219 1451 3797 
Q 1122 3375 1075 2522 
Q 1259 2794 1537 2939 
Q 1816 3084 2150 3084 
Q 2853 3084 3261 2657 
Q 3669 2231 3669 1497 
Q 3669 778 3244 343 
Q 2819 -91 2113 -91 
Q 1303 -91 875 529 
Q 447 1150 447 2328 
Q 447 3434 972 4092 
Q 1497 4750 2381 4750 
Q 2619 4750 2861 4703 
Q 3103 4656 3366 4563 
z
" transform="scale(0.015625)"/>
       </defs>
       <use xlink:href="#DejaVuSans-32"/>
       <use xlink:href="#DejaVuSans-30" transform="translate(63.623047 0)"/>
       <use xlink:href="#DejaVuSans-31" transform="translate(127.246094 0)"/>
       <use xlink:href="#DejaVuSans-36" transform="translate(190.869141 0)"/>
      </g>
     </g>
    </g>
    <g id="xtick_3">
     <g id="line2d_5">
      <path d="M 272.765723 299.570625 
L 272.765723 22.370625 
" clip-path="url(#p020e64e826)" style="fill: none; stroke-dasharray: 2.22,0.96; stroke-dashoffset: 0; stroke: #b0b0b0; stroke-opacity: 0.5; stroke-width: 0.6"/>
     </g>
     <g id="line2d_6">
      <g>
       <use xlink:href="#m1315bbdacd" x="272.765723" y="299.570625" style="stroke: #000000; stroke-width: 0.8"/>
      </g>
     </g>
     <g id="text_3">
      <!-- 2018 -->
      <g transform="translate(260.040723 314.169063) scale(0.1 -0.1)">
       <defs>
        <path id="DejaVuSans-38" d="M 2034 2216 
Q 1584 2216 1326 1975 
Q 1069 1734 1069 1313 
Q 1069 891 1326 650 
Q 1584 409 2034 409 
Q 2484 409 2743 651 
Q 3003 894 3003 1313 
Q 3003 1734 2745 1975 
Q 2488 2216 2034 2216 
z
M 1403 2484 
Q 997 2584 770 2862 
Q 544 3141 544 3541 
Q 544 4100 942 4425 
Q 1341 4750 2034 4750 
Q 2731 4750 3128 4425 
Q 3525 4100 3525 3541 
Q 3525 3141 3298 2862 
Q 3072 2584 2669 2484 
Q 3125 2378 3379 2068 
Q 3634 1759 3634 1313 
Q 3634 634 3220 271 
Q 2806 -91 2034 -91 
Q 1263 -91 848 271 
Q 434 634 434 1313 
Q 434 1759 690 2068 
Q 947 2378 1403 2484 
z
M 1172 3481 
Q 1172 3119 1398 2916 
Q 1625 2713 2034 2713 
Q 2441 2713 2670 2916 
Q 2900 3119 2900 3481 
Q 2900 3844 2670 4047 
Q 2441 4250 2034 4250 
Q 1625 4250 1398 4047 
Q 1172 3844 1172 3481 
z
" transform="scale(0.015625)"/>
       </defs>
       <use xlink:href="#DejaVuSans-32"/>
       <use xlink:href="#DejaVuSans-30" transform="translate(63.623047 0)"/>
       <use xlink:href="#DejaVuSans-31" transform="translate(127.246094 0)"/>
       <use xlink:href="#DejaVuSans-38" transform="translate(190.869141 0)"/>
      </g>
     </g>
    </g>
    <g id="xtick_4">
     <g id="line2d_7">
      <path d="M 377.078143 299.570625 
L 377.078143 22.370625 
" clip-path="url(#p020e64e826)" style="fill: none; stroke-dasharray: 2.22,0.96; stroke-dashoffset: 0; stroke: #b0b0b0; stroke-opacity: 0.5; stroke-width: 0.6"/>
     </g>
     <g id="line2d_8">
      <g>
       <use xlink:href="#m1315bbdacd" x="377.078143" y="299.570625" style="stroke: #000000; stroke-width: 0.8"/>
      </g>
     </g>
     <g id="text_4">
      <!-- 2020 -->
      <g transform="translate(364.353143 314.169063) scale(0.1 -0.1)">
       <use xlink:href="#DejaVuSans-32"/>
       <use xlink:href="#DejaVuSans-30" transform="translate(63.623047 0)"/>
       <use xlink:href="#DejaVuSans-32" transform="translate(127.246094 0)"/>
       <use xlink:href="#DejaVuSans-30" transform="translate(190.869141 0)"/>
      </g>
     </g>
    </g>
    <g id="xtick_5">
     <g id="line2d_9">
      <path d="M 481.533457 299.570625 
L 481.533457 22.370625 
" clip-path="url(#p020e64e826)" style="fill: none; stroke-dasharray: 2.22,0.96; stroke-dashoffset: 0; stroke: #b0b0b0; stroke-opacity: 0.5; stroke-width: 0.6"/>
     </g>
     <g id="line2d_10">
      <g>
       <use xlink:href="#m1315bbdacd" x="481.533457" y="299.570625" style="stroke: #000000; stroke-width: 0.8"/>
      </g>
     </g>
     <g id="text_5">
      <!-- 2022 -->
      <g transform="translate(468.808457 314.169063) scale(0.1 -0.1)">
       <use xlink:href="#DejaVuSans-32"/>
       <use xlink:href="#DejaVuSans-30" transform="translate(63.623047 0)"/>
       <use xlink:href="#DejaVuSans-32" transform="translate(127.246094 0)"/>
       <use xlink:href="#DejaVuSans-32" transform="translate(190.869141 0)"/>
      </g>
     </g>
    </g>
    <g id="xtick_6">
     <g id="line2d_11">
      <path d="M 585.845877 299.570625 
L 585.845877 22.370625 
" clip-path="url(#p020e64e826)" style="fill: none; stroke-dasharray: 2.22,0.96; stroke-dashoffset: 0; stroke: #b0b0b0; stroke-opacity: 0.5; stroke-width: 0.6"/>
     </g>
     <g id="line2d_12">
      <g>
       <use xlink:href="#m1315bbdacd" x="585.845877" y="299.570625" style="stroke: #000000; stroke-width: 0.8"/>
      </g>
     </g>
     <g id="text_6">
      <!-- 2024 -->
      <g transform="translate(573.120877 314.169063) scale(0.1 -0.1)">
       <use xlink:href="#DejaVuSans-32"/>
       <use xlink:href="#DejaVuSans-30" transform="translate(63.623047 0)"/>
       <use xlink:href="#DejaVuSans-32" transform="translate(127.246094 0)"/>
       <use xlink:href="#DejaVuSans-34" transform="translate(190.869141 0)"/>
      </g>
     </g>
    </g>
    <g id="xtick_7">
     <g id="line2d_13">
      <path d="M 690.30119 299.570625 
L 690.30119 22.370625 
" clip-path="url(#p020e64e826)" style="fill: none; stroke-dasharray: 2.22,0.96; stroke-dashoffset: 0; stroke: #b0b0b0; stroke-opacity: 0.5; stroke-width: 0.6"/>
     </g>
     <g id="line2d_14">
      <g>
       <use xlink:href="#m1315bbdacd" x="690.30119" y="299.570625" style="stroke: #000000; stroke-width: 0.8"/>
      </g>
     </g>
     <g id="text_7">
      <!-- 2026 -->
      <g transform="translate(677.57619 314.169063) scale(0.1 -0.1)">
       <use xlink:href="#DejaVuSans-32"/>
       <use xlink:href="#DejaVuSans-30" transform="translate(63.623047 0)"/>
       <use xlink:href="#DejaVuSans-32" transform="translate(127.246094 0)"/>
       <use xlink:href="#DejaVuSans-36" transform="translate(190.869141 0)"/>
      </g>
     </g>
    </g>
    <g id="text_8">
     <!-- Date -->
     <g transform="translate(360.697656 327.847188) scale(0.1 -0.1)">
      <defs>
       <path id="DejaVuSans-44" d="M 1259 4147 
L 1259 519 
L 2022 519 
Q 2988 519 3436 956 
Q 3884 1394 3884 2338 
Q 3884 3275 3436 3711 
Q 2988 4147 2022 4147 
L 1259 4147 
z
M 628 4666 
L 1925 4666 
Q 3281 4666 3915 4102 
Q 4550 3538 4550 2338 
Q 4550 1131 3912 565 
Q 3275 0 1925 0 
L 628 0 
L 628 4666 
z
" transform="scale(0.015625)"/>
       <path id="DejaVuSans-61" d="M 2194 1759 
Q 1497 1759 1228 1600 
Q 959 1441 959 1056 
Q 959 750 1161 570 
Q 1363 391 1709 391 
Q 2188 391 2477 730 
Q 2766 1069 2766 1631 
L 2766 1759 
L 2194 1759 
z
M 3341 1997 
L 3341 0 
L 2766 0 
L 2766 531 
Q 2569 213 2275 61 
Q 1981 -91 1556 -91 
Q 1019 -91 701 211 
Q 384 513 384 1019 
Q 384 1609 779 1909 
Q 1175 2209 1959 2209 
L 2766 2209 
L 2766 2266 
Q 2766 2663 2505 2880 
Q 2244 3097 1772 3097 
Q 1472 3097 1187 3025 
Q 903 2953 641 2809 
L 641 3341 
Q 956 3463 1253 3523 
Q 1550 3584 1831 3584 
Q 2591 3584 2966 3190 
Q 3341 2797 3341 1997 
z
" transform="scale(0.015625)"/>
       <path id="DejaVuSans-74" d="M 1172 4494 
L 1172 3500 
L 2356 3500 
L 2356 3053 
L 1172 3053 
L 1172 1153 
Q 1172 725 1289 603 
Q 1406 481 1766 481 
L 2356 481 
L 2356 0 
L 1766 0 
Q 1100 0 847 248 
Q 594 497 594 1153 
L 594 3053 
L 172 3053 
L 172 3500 
L 594 3500 
L 594 4494 
L 1172 4494 
z
" transform="scale(0.015625)"/>
       <path id="DejaVuSans-65" d="M 3597 1894 
L 3597 1613 
L 953 1613 
Q 991 1019 1311 708 
Q 1631 397 2203 397 
Q 2534 397 2845 478 
Q 3156 559 3463 722 
L 3463 178 
Q 3153 47 2828 -22 
Q 2503 -91 2169 -91 
Q 1331 -91 842 396 
Q 353 884 353 1716 
Q 353 2575 817 3079 
Q 1281 3584 2069 3584 
Q 2775 3584 3186 3129 
Q 3597 2675 3597 1894 
z
M 3022 2063 
Q 3016 2534 2758 2815 
Q 2500 3097 2075 3097 
Q 1594 3097 1305 2825 
Q 1016 2553 972 2059 
L 3022 2063 
z
" transform="scale(0.015625)"/>
      </defs>
      <use xlink:href="#DejaVuSans-44"/>
      <use xlink:href="#DejaVuSans-61" transform="translate(77.001953 0)"/>
      <use xlink:href="#DejaVuSans-74" transform="translate(138.28125 0)"/>
      <use xlink:href="#DejaVuSans-65" transform="translate(177.490234 0)"/>
     </g>
    </g>
   </g>
   <g id="matplotlib.axis_2">
    <g id="ytick_1">
     <g id="line2d_15">
      <path d="M 37.848438 286.851068 
L 707.448438 286.851068 
" clip-path="url(#p020e64e826)" style="fill: none; stroke-dasharray: 2.22,0.96; stroke-dashoffset: 0; stroke: #b0b0b0; stroke-opacity: 0.5; stroke-width: 0.6"/>
     </g>
     <g id="line2d_16">
      <defs>
       <path id="macecb8d5bb" d="M 0 0 
L -3.5 0 
" style="stroke: #000000; stroke-width: 0.8"/>
      </defs>
      <g>
       <use xlink:href="#macecb8d5bb" x="37.848438" y="286.851068" style="stroke: #000000; stroke-width: 0.8"/>
      </g>
     </g>
     <g id="text_9">
      <!-- -2 -->
      <g transform="translate(20.878125 290.650287) scale(0.1 -0.1)">
       <defs>
        <path id="DejaVuSans-2d" d="M 313 2009 
L 1997 2009 
L 1997 1497 
L 313 1497 
L 313 2009 
z
" transform="scale(0.015625)"/>
       </defs>
       <use xlink:href="#DejaVuSans-2d"/>
       <use xlink:href="#DejaVuSans-32" transform="translate(36.083984 0)"/>
      </g>
     </g>
    </g>
    <g id="ytick_2">
     <g id="line2d_17">
      <path d="M 37.848438 236.663766 
L 707.448438 236.663766 
" clip-path="url(#p020e64e826)" style="fill: none; stroke-dasharray: 2.22,0.96; stroke-dashoffset: 0; stroke: #b0b0b0; stroke-opacity: 0.5; stroke-width: 0.6"/>
     </g>
     <g id="line2d_18">
      <g>
       <use xlink:href="#macecb8d5bb" x="37.848438" y="236.663766" style="stroke: #000000; stroke-width: 0.8"/>
      </g>
     </g>
     <g id="text_10">
      <!-- -1 -->
      <g transform="translate(20.878125 240.462984) scale(0.1 -0.1)">
       <use xlink:href="#DejaVuSans-2d"/>
       <use xlink:href="#DejaVuSans-31" transform="translate(36.083984 0)"/>
      </g>
     </g>
    </g>
    <g id="ytick_3">
     <g id="line2d_19">
      <path d="M 37.848438 186.476463 
L 707.448438 186.476463 
" clip-path="url(#p020e64e826)" style="fill: none; stroke-dasharray: 2.22,0.96; stroke-dashoffset: 0; stroke: #b0b0b0; stroke-opacity: 0.5; stroke-width: 0.6"/>
     </g>
     <g id="line2d_20">
      <g>
       <use xlink:href="#macecb8d5bb" x="37.848438" y="186.476463" style="stroke: #000000; stroke-width: 0.8"/>
      </g>
     </g>
     <g id="text_11">
      <!-- 0 -->
      <g transform="translate(24.485938 190.275682) scale(0.1 -0.1)">
       <use xlink:href="#DejaVuSans-30"/>
      </g>
     </g>
    </g>
    <g id="ytick_4">
     <g id="line2d_21">
      <path d="M 37.848438 136.289161 
L 707.448438 136.289161 
" clip-path="url(#p020e64e826)" style="fill: none; stroke-dasharray: 2.22,0.96; stroke-dashoffset: 0; stroke: #b0b0b0; stroke-opacity: 0.5; stroke-width: 0.6"/>
     </g>
     <g id="line2d_22">
      <g>
       <use xlink:href="#macecb8d5bb" x="37.848438" y="136.289161" style="stroke: #000000; stroke-width: 0.8"/>
      </g>
     </g>
     <g id="text_12">
      <!-- 1 -->
      <g transform="translate(24.485938 140.08838) scale(0.1 -0.1)">
       <use xlink:href="#DejaVuSans-31"/>
      </g>
     </g>
    </g>
    <g id="ytick_5">
     <g id="line2d_23">
      <path d="M 37.848438 86.101858 
L 707.448438 86.101858 
" clip-path="url(#p020e64e826)" style="fill: none; stroke-dasharray: 2.22,0.96; stroke-dashoffset: 0; stroke: #b0b0b0; stroke-opacity: 0.5; stroke-width: 0.6"/>
     </g>
     <g id="line2d_24">
      <g>
       <use xlink:href="#macecb8d5bb" x="37.848438" y="86.101858" style="stroke: #000000; stroke-width: 0.8"/>
      </g>
     </g>
     <g id="text_13">
      <!-- 2 -->
      <g transform="translate(24.485938 89.901077) scale(0.1 -0.1)">
       <use xlink:href="#DejaVuSans-32"/>
      </g>
     </g>
    </g>
    <g id="ytick_6">
     <g id="line2d_25">
      <path d="M 37.848438 35.914556 
L 707.448438 35.914556 
" clip-path="url(#p020e64e826)" style="fill: none; stroke-dasharray: 2.22,0.96; stroke-dashoffset: 0; stroke: #b0b0b0; stroke-opacity: 0.5; stroke-width: 0.6"/>
     </g>
     <g id="line2d_26">
      <g>
       <use xlink:href="#macecb8d5bb" x="37.848438" y="35.914556" style="stroke: #000000; stroke-width: 0.8"/>
      </g>
     </g>
     <g id="text_14">
      <!-- 3 -->
      <g transform="translate(24.485938 39.713775) scale(0.1 -0.1)">
       <defs>
        <path id="DejaVuSans-33" d="M 2597 2516 
Q 3050 2419 3304 2112 
Q 3559 1806 3559 1356 
Q 3559 666 3084 287 
Q 2609 -91 1734 -91 
Q 1441 -91 1130 -33 
Q 819 25 488 141 
L 488 750 
Q 750 597 1062 519 
Q 1375 441 1716 441 
Q 2309 441 2620 675 
Q 2931 909 2931 1356 
Q 2931 1769 2642 2001 
Q 2353 2234 1838 2234 
L 1294 2234 
L 1294 2753 
L 1863 2753 
Q 2328 2753 2575 2939 
Q 2822 3125 2822 3475 
Q 2822 3834 2567 4026 
Q 2313 4219 1838 4219 
Q 1578 4219 1281 4162 
Q 984 4106 628 3988 
L 628 4550 
Q 988 4650 1302 4700 
Q 1616 4750 1894 4750 
Q 2613 4750 3031 4423 
Q 3450 4097 3450 3541 
Q 3450 3153 3228 2886 
Q 3006 2619 2597 2516 
z
" transform="scale(0.015625)"/>
       </defs>
       <use xlink:href="#DejaVuSans-33"/>
      </g>
     </g>
    </g>
    <g id="text_15">
     <!-- Z-score -->
     <g transform="translate(14.798438 179.544844) rotate(-90) scale(0.1 -0.1)">
      <defs>
       <path id="DejaVuSans-5a" d="M 359 4666 
L 4025 4666 
L 4025 4184 
L 1075 531 
L 4097 531 
L 4097 0 
L 288 0 
L 288 481 
L 3238 4134 
L 359 4134 
L 359 4666 
z
" transform="scale(0.015625)"/>
       <path id="DejaVuSans-73" d="M 2834 3397 
L 2834 2853 
Q 2591 2978 2328 3040 
Q 2066 3103 1784 3103 
Q 1356 3103 1142 2972 
Q 928 2841 928 2578 
Q 928 2378 1081 2264 
Q 1234 2150 1697 2047 
L 1894 2003 
Q 2506 1872 2764 1633 
Q 3022 1394 3022 966 
Q 3022 478 2636 193 
Q 2250 -91 1575 -91 
Q 1294 -91 989 -36 
Q 684 19 347 128 
L 347 722 
Q 666 556 975 473 
Q 1284 391 1588 391 
Q 1994 391 2212 530 
Q 2431 669 2431 922 
Q 2431 1156 2273 1281 
Q 2116 1406 1581 1522 
L 1381 1569 
Q 847 1681 609 1914 
Q 372 2147 372 2553 
Q 372 3047 722 3315 
Q 1072 3584 1716 3584 
Q 2034 3584 2315 3537 
Q 2597 3491 2834 3397 
z
" transform="scale(0.015625)"/>
       <path id="DejaVuSans-63" d="M 3122 3366 
L 3122 2828 
Q 2878 2963 2633 3030 
Q 2388 3097 2138 3097 
Q 1578 3097 1268 2742 
Q 959 2388 959 1747 
Q 959 1106 1268 751 
Q 1578 397 2138 397 
Q 2388 397 2633 464 
Q 2878 531 3122 666 
L 3122 134 
Q 2881 22 2623 -34 
Q 2366 -91 2075 -91 
Q 1284 -91 818 406 
Q 353 903 353 1747 
Q 353 2603 823 3093 
Q 1294 3584 2113 3584 
Q 2378 3584 2631 3529 
Q 2884 3475 3122 3366 
z
" transform="scale(0.015625)"/>
       <path id="DejaVuSans-6f" d="M 1959 3097 
Q 1497 3097 1228 2736 
Q 959 2375 959 1747 
Q 959 1119 1226 758 
Q 1494 397 1959 397 
Q 2419 397 2687 759 
Q 2956 1122 2956 1747 
Q 2956 2369 2687 2733 
Q 2419 3097 1959 3097 
z
M 1959 3584 
Q 2709 3584 3137 3096 
Q 3566 2609 3566 1747 
Q 3566 888 3137 398 
Q 2709 -91 1959 -91 
Q 1206 -91 779 398 
Q 353 888 353 1747 
Q 353 2609 779 3096 
Q 1206 3584 1959 3584 
z
" transform="scale(0.015625)"/>
       <path id="DejaVuSans-72" d="M 2631 2963 
Q 2534 3019 2420 3045 
Q 2306 3072 2169 3072 
Q 1681 3072 1420 2755 
Q 1159 2438 1159 1844 
L 1159 0 
L 581 0 
L 581 3500 
L 1159 3500 
L 1159 2956 
Q 1341 3275 1631 3429 
Q 1922 3584 2338 3584 
Q 2397 3584 2469 3576 
Q 2541 3569 2628 3553 
L 2631 2963 
z
" transform="scale(0.015625)"/>
      </defs>
      <use xlink:href="#DejaVuSans-5a"/>
      <use xlink:href="#DejaVuSans-2d" transform="translate(66.755859 0)"/>
      <use xlink:href="#DejaVuSans-73" transform="translate(102.839844 0)"/>
      <use xlink:href="#DejaVuSans-63" transform="translate(154.939453 0)"/>
      <use xlink:href="#DejaVuSans-6f" transform="translate(209.919922 0)"/>
      <use xlink:href="#DejaVuSans-72" transform="translate(271.101562 0)"/>
      <use xlink:href="#DejaVuSans-65" transform="translate(309.964844 0)"/>
     </g>
    </g>
   </g>
   <g id="line2d_27">
    <path d="M 68.284801 225.141508 
L 72.285825 158.27109 
L 76.715531 55.103304 
L 81.002343 87.519412 
L 85.432048 57.997987 
L 89.71886 66.205008 
L 94.148566 125.421322 
L 98.578271 86.316004 
L 102.865083 61.478111 
L 107.294788 40.413062 
L 111.5816 103.488952 
L 116.011306 220.143573 
L 120.441011 185.179711 
L 124.442035 255.064068 
L 128.871741 263.78064 
L 133.158553 93.428033 
L 137.588258 34.970625 
L 141.87507 98.209138 
L 146.304776 110.264894 
L 150.734481 127.13428 
L 155.021293 120.423387 
L 159.450998 149.131699 
L 163.73781 142.702685 
L 168.167516 152.351627 
L 172.597221 156.818328 
L 176.741139 148.795612 
L 181.170845 153.305679 
L 185.457656 156.90506 
L 189.887362 150.194167 
L 194.174174 152.969592 
L 198.603879 154.476562 
L 203.033585 155.625762 
L 207.320397 158.943263 
L 211.750102 176.387249 
L 216.036914 179.596335 
L 220.466619 212.966495 
L 224.896325 176.593237 
L 233.327055 262.512184 
L 237.613866 245.5127 
L 242.043572 240.222045 
L 246.330384 261.254569 
L 250.760089 246.249923 
L 255.189795 271.315488 
L 259.476607 262.241146 
L 263.906312 250.97682 
L 268.193124 263.043418 
L 272.622829 286.970625 
L 277.052535 237.175581 
L 281.053559 219.612339 
L 285.483265 243.084203 
L 289.770076 283.002633 
L 294.199782 231.809035 
L 298.486594 248.60253 
L 302.916299 182.881312 
L 307.346005 163.702685 
L 311.632817 183.58601 
L 316.062522 174.110532 
L 320.349334 177.894218 
L 324.779039 226.691843 
L 329.208745 166.499794 
L 333.209769 166.890088 
L 337.639475 188.573103 
L 341.926286 184.37744 
L 346.355992 173.340785 
L 350.642804 157.230305 
L 355.072509 170.413578 
L 359.502215 198.699071 
L 363.789026 197.679969 
L 368.218732 205.962881 
L 372.505544 199.609758 
L 376.935249 188.876665 
L 381.364955 197.224626 
L 385.508873 174.685132 
L 389.938578 139.851368 
L 394.22539 110.88286 
L 398.655096 115.945844 
L 402.941907 166.998503 
L 407.371613 182.5127 
L 411.801318 197.473981 
L 416.08813 200.119309 
L 420.517836 219.18952 
L 424.804647 224.783738 
L 429.234353 194.872019 
L 433.664058 225.206557 
L 437.665083 204.531802 
L 442.094788 179.618018 
L 446.3816 172.560197 
L 450.811306 176.961849 
L 455.098117 204.271606 
L 459.527823 184.637636 
L 463.957528 182.29587 
L 468.24434 197.853433 
L 472.674046 185.721787 
L 476.960857 189.050129 
L 481.390563 223.244244 
L 485.820268 205.876149 
L 489.821293 197.788384 
L 494.250998 211.13428 
L 498.53781 167.898348 
L 502.967516 145.304647 
L 507.254327 159.366082 
L 511.684033 137.173516 
L 516.113738 131.080589 
L 520.40055 148.286061 
L 524.830256 157.98921 
L 529.117067 171.790449 
L 533.546773 215.427517 
L 537.976478 192.378472 
L 541.977503 219.850852 
L 546.407208 233.652091 
L 550.69402 211.210171 
L 555.123726 178.642282 
L 559.410537 210.418741 
L 563.840243 187.770832 
L 568.269948 196.303098 
L 572.55676 213.356789 
L 576.986466 237.078008 
L 581.273277 239.452298 
L 585.702983 255.183325 
L 590.132688 225.716108 
L 594.276607 203.946361 
L 598.706312 213.139959 
L 602.993124 196.693392 
L 607.422829 187.337171 
L 611.709641 199.945844 
L 616.139347 200.249407 
L 620.569052 198.926743 
L 624.855864 203.837946 
L 629.285569 227.786836 
L 633.572381 219.102788 
L 638.002087 228.556583 
L 642.431792 270.805937 
L 646.432817 247.843624 
L 650.862522 234.194167 
L 655.149334 213.931389 
L 659.579039 209.90919 
L 663.865851 212.06665 
L 668.295557 200.834848 
L 672.725262 195.695973 
L 677.012074 195.695973 
L 677.012074 195.695973 
" clip-path="url(#p020e64e826)" style="fill: none; stroke: #f59e0b; stroke-width: 2; stroke-linecap: square"/>
   </g>
   <g id="line2d_28">
    <path d="M 68.284801 243.267985 
L 72.285825 248.793837 
L 76.715531 258.480587 
L 81.002343 262.513944 
L 85.432048 259.35528 
L 89.71886 251.523748 
L 94.148566 256.966382 
L 98.578271 249.736371 
L 102.865083 239.207491 
L 107.294788 241.70403 
L 111.5816 236.495672 
L 116.011306 245.458787 
L 120.441011 226.570122 
L 124.442035 204.186304 
L 128.871741 167.359648 
L 133.158553 120.077381 
L 137.588258 58.120714 
L 141.87507 120.012254 
L 146.304776 148.846368 
L 150.734481 197.960335 
L 155.021293 190.199356 
L 159.450998 154.414734 
L 163.73781 136.839466 
L 168.167516 133.088326 
L 172.597221 198.213607 
L 176.741139 208.51816 
L 181.170845 176.12286 
L 185.457656 185.127584 
L 189.887362 183.222617 
L 194.174174 177.07263 
L 198.603879 186.604703 
L 203.033585 180.331698 
L 207.320397 184.118115 
L 211.750102 183.226235 
L 216.036914 181.119555 
L 220.466619 201.109049 
L 224.896325 207.968197 
L 228.897349 204.265903 
L 233.327055 206.058707 
L 237.613866 211.179325 
L 242.043572 219.048848 
L 246.330384 214.133562 
L 250.760089 221.530009 
L 255.189795 211.301438 
L 259.476607 209.709443 
L 263.906312 209.455266 
L 268.193124 218.454563 
L 277.052535 221.642173 
L 281.053559 219.962436 
L 285.483265 206.679224 
L 289.770076 215.261527 
L 294.199782 220.857029 
L 298.486594 233.251981 
L 302.916299 237.363128 
L 307.346005 248.765796 
L 311.632817 250.924036 
L 316.062522 263.205015 
L 320.349334 258.336765 
L 324.779039 265.46999 
L 329.208745 267.50883 
L 333.209769 239.676949 
L 337.639475 225.39693 
L 341.926286 231.707926 
L 346.355992 244.382381 
L 350.642804 241.863229 
L 355.072509 236.537281 
L 359.502215 232.872977 
L 363.789026 231.366913 
L 368.218732 227.408634 
L 372.505544 227.988446 
L 376.935249 215.938125 
L 381.364955 204.21344 
L 385.508873 191.203399 
L 389.938578 209.262598 
L 394.22539 191.396971 
L 398.655096 189.837539 
L 407.371613 125.72987 
L 411.801318 131.798448 
L 416.08813 145.687704 
L 420.517836 138.351861 
L 424.804647 140.520051 
L 429.234353 110.274849 
L 433.664058 95.566982 
L 437.665083 114.992041 
L 442.094788 129.067633 
L 446.3816 98.955399 
L 450.811306 79.266214 
L 455.098117 64.059943 
L 459.527823 67.406752 
L 463.957528 87.854849 
L 468.24434 85.093279 
L 472.674046 75.503315 
L 476.960857 62.394679 
L 481.390563 78.036035 
L 485.820268 115.459689 
L 489.821293 117.958941 
L 494.250998 138.023512 
L 498.53781 168.80963 
L 502.967516 161.035988 
L 507.254327 124.354964 
L 511.684033 137.032133 
L 516.113738 146.081181 
L 520.40055 171.538636 
L 524.830256 173.699589 
L 529.117067 166.442441 
L 533.546773 166.310378 
L 537.976478 145.137742 
L 541.977503 158.869608 
L 546.407208 161.540723 
L 550.69402 168.304895 
L 555.123726 180.182448 
L 563.840243 176.269396 
L 568.269948 188.398412 
L 572.55676 197.323536 
L 576.986466 200.550946 
L 581.273277 204.679279 
L 585.702983 207.503262 
L 590.132688 236.267727 
L 594.276607 215.132177 
L 598.706312 214.121803 
L 602.993124 210.486445 
L 607.422829 215.30585 
L 611.709641 226.312328 
L 616.139347 225.886288 
L 620.569052 235.626406 
L 624.855864 181.839571 
L 629.285569 182.8011 
L 633.572381 177.415452 
L 638.002087 184.868885 
L 642.431792 191.90442 
L 646.432817 182.264706 
L 650.862522 188.297103 
L 655.149334 202.378122 
L 659.579039 198.293206 
L 663.865851 183.836802 
L 668.295557 167.980164 
L 672.725262 117.161135 
L 677.012074 113.260746 
L 677.012074 113.260746 
" clip-path="url(#p020e64e826)" style="fill: none; stroke: #ef4444; stroke-width: 2; stroke-linecap: square"/>
   </g>
   <g id="line2d_29">
    <path d="M 76.715531 142.425521 
L 81.002343 92.057224 
L 85.432048 55.358282 
L 89.71886 59.421393 
L 94.148566 73.293109 
L 98.578271 83.657218 
L 102.865083 81.927221 
L 107.294788 50.815057 
L 111.5816 57.100182 
L 116.011306 115.170138 
L 120.441011 168.153269 
L 124.442035 223.628229 
L 128.871741 239.598955 
L 133.158553 206.018768 
L 137.588258 125.466792 
L 141.87507 64.869296 
L 146.304776 71.031417 
L 150.734481 104.762383 
L 155.021293 112.892574 
L 159.450998 127.117431 
L 163.73781 132.81531 
L 168.167516 144.500723 
L 172.597221 147.313951 
L 176.741139 149.543901 
L 181.170845 149.893075 
L 185.457656 149.924818 
L 189.887362 150.436675 
L 194.174174 150.31367 
L 198.603879 149.424865 
L 203.033585 151.412774 
L 207.320397 153.599077 
L 211.750102 161.618167 
L 216.036914 170.391154 
L 220.466619 190.163111 
L 224.896325 190.238501 
L 228.897349 204.19751 
L 233.327055 222.330732 
L 237.613866 247.554559 
L 242.043572 255.783946 
L 246.330384 255.323672 
L 250.760089 255.593488 
L 255.189795 266.973374 
L 259.476607 267.334451 
L 263.906312 269.064448 
L 268.193124 266.036954 
L 272.622829 275.087693 
L 277.052535 270.036579 
L 281.053559 254.141243 
L 285.483265 238.079256 
L 289.770076 254.851494 
L 294.199782 259.315362 
L 298.486594 261.335014 
L 302.916299 224.691622 
L 311.632817 175.969996 
L 316.062522 172.75998 
L 320.349334 177.953938 
L 324.779039 193.730237 
L 329.208745 190.944784 
L 333.209769 186.917383 
L 337.639475 172.96631 
L 341.926286 179.509347 
L 346.355992 181.870237 
L 350.642804 170.39909 
L 355.072509 165.288458 
L 359.502215 174.569334 
L 363.789026 189.373502 
L 368.218732 202.384188 
L 372.505544 202.71749 
L 381.364955 196.297457 
L 385.508873 187.175296 
L 389.938578 169.232533 
L 394.22539 137.632319 
L 398.655096 116.134333 
L 402.941907 126.06991 
L 407.371613 152.285708 
L 411.801318 182.124182 
L 416.08813 194.246062 
L 420.517836 207.669407 
L 424.804647 217.664502 
L 429.234353 215.744047 
L 433.664058 217.946222 
L 437.665083 210.534218 
L 442.094788 204.951408 
L 446.3816 185.683372 
L 450.811306 175.593048 
L 455.098117 184.616012 
L 459.527823 189.036232 
L 463.957528 190.98843 
L 468.24434 188.639444 
L 472.674046 189.036232 
L 476.960857 191.508223 
L 481.390563 200.801003 
L 485.820268 208.177296 
L 489.821293 211.375409 
L 494.250998 206.943285 
L 498.53781 193.043793 
L 507.254327 154.888638 
L 511.684033 143.64366 
L 516.113738 138.437799 
L 520.40055 134.382623 
L 524.830256 142.000957 
L 529.117067 156.900355 
L 533.546773 181.473449 
L 537.976478 194.059571 
L 541.977503 211.649193 
L 546.407208 218.319203 
L 550.69402 225.211414 
L 555.123726 210.129494 
L 563.840243 193.047761 
L 568.269948 199.511441 
L 572.55676 200.586737 
L 576.986466 218.632666 
L 581.273277 234.424837 
L 585.702983 249.732926 
L 590.132688 245.574586 
L 594.276607 232.579771 
L 598.706312 217.192324 
L 602.993124 206.570304 
L 607.422829 200.491508 
L 611.709641 195.662596 
L 616.139347 196.964061 
L 620.569052 201.205727 
L 624.855864 202.630197 
L 629.285569 212.708617 
L 633.572381 220.092846 
L 638.002087 229.139618 
L 642.431792 244.884174 
L 646.432817 255.40303 
L 650.862522 257.466328 
L 655.149334 236.650819 
L 659.579039 222.767199 
L 663.865851 214.668751 
L 668.295557 209.87555 
L 672.725262 204.673656 
L 677.012074 198.682154 
L 677.012074 198.682154 
" clip-path="url(#p020e64e826)" style="fill: none; stroke: #1d4ed8; stroke-width: 2.4; stroke-linecap: square"/>
   </g>
   <g id="patch_3">
    <path d="M 37.848438 299.570625 
L 37.848438 22.370625 
" style="fill: none; stroke: #000000; stroke-width: 0.8; stroke-linejoin: miter; stroke-linecap: square"/>
   </g>
   <g id="patch_4">
    <path d="M 707.448438 299.570625 
L 707.448438 22.370625 
" style="fill: none; stroke: #000000; stroke-width: 0.8; stroke-linejoin: miter; stroke-linecap: square"/>
   </g>
   <g id="patch_5">
    <path d="M 37.848438 299.570625 
L 707.448438 299.570625 
" style="fill: none; stroke: #000000; stroke-width: 0.8; stroke-linejoin: miter; stroke-linecap: square"/>
   </g>
   <g id="patch_6">
    <path d="M 37.848438 22.370625 
L 707.448438 22.370625 
" style="fill: none; stroke: #000000; stroke-width: 0.8; stroke-linejoin: miter; stroke-linecap: square"/>
   </g>
   <g id="text_16">
    <!-- Gap vs ChiNext (Z) + Gap MA3 | 2014-01–2025-09 -->
    <g transform="translate(220.729375 16.370625) scale(0.12 -0.12)">
     <defs>
      <path id="DejaVuSans-47" d="M 3809 666 
L 3809 1919 
L 2778 1919 
L 2778 2438 
L 4434 2438 
L 4434 434 
Q 4069 175 3628 42 
Q 3188 -91 2688 -91 
Q 1594 -91 976 548 
Q 359 1188 359 2328 
Q 359 3472 976 4111 
Q 1594 4750 2688 4750 
Q 3144 4750 3555 4637 
Q 3966 4525 4313 4306 
L 4313 3634 
Q 3963 3931 3569 4081 
Q 3175 4231 2741 4231 
Q 1884 4231 1454 3753 
Q 1025 3275 1025 2328 
Q 1025 1384 1454 906 
Q 1884 428 2741 428 
Q 3075 428 3337 486 
Q 3600 544 3809 666 
z
" transform="scale(0.015625)"/>
      <path id="DejaVuSans-70" d="M 1159 525 
L 1159 -1331 
L 581 -1331 
L 581 3500 
L 1159 3500 
L 1159 2969 
Q 1341 3281 1617 3432 
Q 1894 3584 2278 3584 
Q 2916 3584 3314 3078 
Q 3713 2572 3713 1747 
Q 3713 922 3314 415 
Q 2916 -91 2278 -91 
Q 1894 -91 1617 61 
Q 1341 213 1159 525 
z
M 3116 1747 
Q 3116 2381 2855 2742 
Q 2594 3103 2138 3103 
Q 1681 3103 1420 2742 
Q 1159 2381 1159 1747 
Q 1159 1113 1420 752 
Q 1681 391 2138 391 
Q 2594 391 2855 752 
Q 3116 1113 3116 1747 
z
" transform="scale(0.015625)"/>
      <path id="DejaVuSans-20" transform="scale(0.015625)"/>
      <path id="DejaVuSans-76" d="M 191 3500 
L 800 3500 
L 1894 563 
L 2988 3500 
L 3597 3500 
L 2284 0 
L 1503 0 
L 191 3500 
z
" transform="scale(0.015625)"/>
      <path id="DejaVuSans-43" d="M 4122 4306 
L 4122 3641 
Q 3803 3938 3442 4084 
Q 3081 4231 2675 4231 
Q 1875 4231 1450 3742 
Q 1025 3253 1025 2328 
Q 1025 1406 1450 917 
Q 1875 428 2675 428 
Q 3081 428 3442 575 
Q 3803 722 4122 1019 
L 4122 359 
Q 3791 134 3420 21 
Q 3050 -91 2638 -91 
Q 1578 -91 968 557 
Q 359 1206 359 2328 
Q 359 3453 968 4101 
Q 1578 4750 2638 4750 
Q 3056 4750 3426 4639 
Q 3797 4528 4122 4306 
z
" transform="scale(0.015625)"/>
      <path id="DejaVuSans-68" d="M 3513 2113 
L 3513 0 
L 2938 0 
L 2938 2094 
Q 2938 2591 2744 2837 
Q 2550 3084 2163 3084 
Q 1697 3084 1428 2787 
Q 1159 2491 1159 1978 
L 1159 0 
L 581 0 
L 581 4863 
L 1159 4863 
L 1159 2956 
Q 1366 3272 1645 3428 
Q 1925 3584 2291 3584 
Q 2894 3584 3203 3211 
Q 3513 2838 3513 2113 
z
" transform="scale(0.015625)"/>
      <path id="DejaVuSans-69" d="M 603 3500 
L 1178 3500 
L 1178 0 
L 603 0 
L 603 3500 
z
M 603 4863 
L 1178 4863 
L 1178 4134 
L 603 4134 
L 603 4863 
z
" transform="scale(0.015625)"/>
      <path id="DejaVuSans-4e" d="M 628 4666 
L 1478 4666 
L 3547 763 
L 3547 4666 
L 4159 4666 
L 4159 0 
L 3309 0 
L 1241 3903 
L 1241 0 
L 628 0 
L 628 4666 
z
" transform="scale(0.015625)"/>
      <path id="DejaVuSans-78" d="M 3513 3500 
L 2247 1797 
L 3578 0 
L 2900 0 
L 1881 1375 
L 863 0 
L 184 0 
L 1544 1831 
L 300 3500 
L 978 3500 
L 1906 2253 
L 2834 3500 
L 3513 3500 
z
" transform="scale(0.015625)"/>
      <path id="DejaVuSans-28" d="M 1984 4856 
Q 1566 4138 1362 3434 
Q 1159 2731 1159 2009 
Q 1159 1288 1364 580 
Q 1569 -128 1984 -844 
L 1484 -844 
Q 1016 -109 783 600 
Q 550 1309 550 2009 
Q 550 2706 781 3412 
Q 1013 4119 1484 4856 
L 1984 4856 
z
" transform="scale(0.015625)"/>
      <path id="DejaVuSans-29" d="M 513 4856 
L 1013 4856 
Q 1481 4119 1714 3412 
Q 1947 2706 1947 2009 
Q 1947 1309 1714 600 
Q 1481 -109 1013 -844 
L 513 -844 
Q 928 -128 1133 580 
Q 1338 1288 1338 2009 
Q 1338 2731 1133 3434 
Q 928 4138 513 4856 
z
" transform="scale(0.015625)"/>
      <path id="DejaVuSans-2b" d="M 2944 4013 
L 2944 2272 
L 4684 2272 
L 4684 1741 
L 2944 1741 
L 2944 0 
L 2419 0 
L 2419 1741 
L 678 1741 
L 678 2272 
L 2419 2272 
L 2419 4013 
L 2944 4013 
z
" transform="scale(0.015625)"/>
      <path id="DejaVuSans-4d" d="M 628 4666 
L 1569 4666 
L 2759 1491 
L 3956 4666 
L 4897 4666 
L 4897 0 
L 4281 0 
L 4281 4097 
L 3078 897 
L 2444 897 
L 1241 4097 
L 1241 0 
L 628 0 
L 628 4666 
z
" transform="scale(0.015625)"/>
      <path id="DejaVuSans-41" d="M 2188 4044 
L 1331 1722 
L 3047 1722 
L 2188 4044 
z
M 1831 4666 
L 2547 4666 
L 4325 0 
L 3669 0 
L 3244 1197 
L 1141 1197 
L 716 0 
L 50 0 
L 1831 4666 
z
" transform="scale(0.015625)"/>
      <path id="DejaVuSans-7c" d="M 1344 4891 
L 1344 -1509 
L 813 -1509 
L 813 4891 
L 1344 4891 
z
" transform="scale(0.015625)"/>
      <path id="DejaVuSans-2013" d="M 313 1978 
L 2888 1978 
L 2888 1528 
L 313 1528 
L 313 1978 
z
" transform="scale(0.015625)"/>
      <path id="DejaVuSans-35" d="M 691 4666 
L 3169 4666 
L 3169 4134 
L 1269 4134 
L 1269 2991 
Q 1406 3038 1543 3061 
Q 1681 3084 1819 3084 
Q 2600 3084 3056 2656 
Q 3513 2228 3513 1497 
Q 3513 744 3044 326 
Q 2575 -91 1722 -91 
Q 1428 -91 1123 -41 
Q 819 9 494 109 
L 494 744 
Q 775 591 1075 516 
Q 1375 441 1709 441 
Q 2250 441 2565 725 
Q 2881 1009 2881 1497 
Q 2881 1984 2565 2268 
Q 2250 2553 1709 2553 
Q 1456 2553 1204 2497 
Q 953 2441 691 2322 
L 691 4666 
z
" transform="scale(0.015625)"/>
      <path id="DejaVuSans-39" d="M 703 97 
L 703 672 
Q 941 559 1184 500 
Q 1428 441 1663 441 
Q 2288 441 2617 861 
Q 2947 1281 2994 2138 
Q 2813 1869 2534 1725 
Q 2256 1581 1919 1581 
Q 1219 1581 811 2004 
Q 403 2428 403 3163 
Q 403 3881 828 4315 
Q 1253 4750 1959 4750 
Q 2769 4750 3195 4129 
Q 3622 3509 3622 2328 
Q 3622 1225 3098 567 
Q 2575 -91 1691 -91 
Q 1453 -91 1209 -44 
Q 966 3 703 97 
z
M 1959 2075 
Q 2384 2075 2632 2365 
Q 2881 2656 2881 3163 
Q 2881 3666 2632 3958 
Q 2384 4250 1959 4250 
Q 1534 4250 1286 3958 
Q 1038 3666 1038 3163 
Q 1038 2656 1286 2365 
Q 1534 2075 1959 2075 
z
" transform="scale(0.015625)"/>
     </defs>
     <use xlink:href="#DejaVuSans-47"/>
     <use xlink:href="#DejaVuSans-61" transform="translate(77.490234 0)"/>
     <use xlink:href="#DejaVuSans-70" transform="translate(138.769531 0)"/>
     <use xlink:href="#DejaVuSans-20" transform="translate(202.246094 0)"/>
     <use xlink:href="#DejaVuSans-76" transform="translate(234.033203 0)"/>
     <use xlink:href="#DejaVuSans-73" transform="translate(293.212891 0)"/>
     <use xlink:href="#DejaVuSans-20" transform="translate(345.3125 0)"/>
     <use xlink:href="#DejaVuSans-43" transform="translate(377.099609 0)"/>
     <use xlink:href="#DejaVuSans-68" transform="translate(446.923828 0)"/>
     <use xlink:href="#DejaVuSans-69" transform="translate(510.302734 0)"/>
     <use xlink:href="#DejaVuSans-4e" transform="translate(538.085938 0)"/>
     <use xlink:href="#DejaVuSans-65" transform="translate(612.890625 0)"/>
     <use xlink:href="#DejaVuSans-78" transform="translate(672.664062 0)"/>
     <use xlink:href="#DejaVuSans-74" transform="translate(731.84375 0)"/>
     <use xlink:href="#DejaVuSans-20" transform="translate(771.052734 0)"/>
     <use xlink:href="#DejaVuSans-28" transform="translate(802.839844 0)"/>
     <use xlink:href="#DejaVuSans-5a" transform="translate(841.853516 0)"/>
     <use xlink:href="#DejaVuSans-29" transform="translate(910.359375 0)"/>
     <use xlink:href="#DejaVuSans-20" transform="translate(949.373047 0)"/>
     <use xlink:href="#DejaVuSans-2b" transform="translate(981.160156 0)"/>
     <use xlink:href="#DejaVuSans-20" transform="translate(1064.949219 0)"/>
     <use xlink:href="#DejaVuSans-47" transform="translate(1096.736328 0)"/>
     <use xlink:href="#DejaVuSans-61" transform="translate(1174.226562 0)"/>
     <use xlink:href="#DejaVuSans-70" transform="translate(1235.505859 0)"/>
     <use xlink:href="#DejaVuSans-20" transform="translate(1298.982422 0)"/>
     <use xlink:href="#DejaVuSans-4d" transform="translate(1330.769531 0)"/>
     <use xlink:href="#DejaVuSans-41" transform="translate(1417.048828 0)"/>
     <use xlink:href="#DejaVuSans-33" transform="translate(1485.457031 0)"/>
     <use xlink:href="#DejaVuSans-20" transform="translate(1549.080078 0)"/>
     <use xlink:href="#DejaVuSans-7c" transform="translate(1580.867188 0)"/>
     <use xlink:href="#DejaVuSans-20" transform="translate(1614.558594 0)"/>
     <use xlink:href="#DejaVuSans-32" transform="translate(1646.345703 0)"/>
     <use xlink:href="#DejaVuSans-30" transform="translate(1709.96875 0)"/>
     <use xlink:href="#DejaVuSans-31" transform="translate(1773.591797 0)"/>
     <use xlink:href="#DejaVuSans-34" transform="translate(1837.214844 0)"/>
     <use xlink:href="#DejaVuSans-2d" transform="translate(1900.837891 0)"/>
     <use xlink:href="#DejaVuSans-30" transform="translate(1936.921875 0)"/>
     <use xlink:href="#DejaVuSans-31" transform="translate(2000.544922 0)"/>
     <use xlink:href="#DejaVuSans-2013" transform="translate(2064.167969 0)"/>
     <use xlink:href="#DejaVuSans-32" transform="translate(2114.167969 0)"/>
     <use xlink:href="#DejaVuSans-30" transform="translate(2177.791016 0)"/>
     <use xlink:href="#DejaVuSans-32" transform="translate(2241.414062 0)"/>
     <use xlink:href="#DejaVuSans-35" transform="translate(2305.037109 0)"/>
     <use xlink:href="#DejaVuSans-2d" transform="translate(2368.660156 0)"/>
     <use xlink:href="#DejaVuSans-30" transform="translate(2404.744141 0)"/>
     <use xlink:href="#DejaVuSans-39" transform="translate(2468.367188 0)"/>
    </g>
   </g>
   <g id="legend_1">
    <g id="patch_7">
     <path d="M 613.185938 74.405 
L 700.448438 74.405 
Q 702.448438 74.405 702.448438 72.405 
L 702.448438 29.370625 
Q 702.448438 27.370625 700.448438 27.370625 
L 613.185938 27.370625 
Q 611.185938 27.370625 611.185938 29.370625 
L 611.185938 72.405 
Q 611.185938 74.405 613.185938 74.405 
z
" style="fill: #ffffff; opacity: 0.8; stroke: #cccccc; stroke-linejoin: miter"/>
    </g>
    <g id="line2d_30">
     <path d="M 615.185938 35.469062 
L 625.185938 35.469062 
L 635.185938 35.469062 
" style="fill: none; stroke: #f59e0b; stroke-width: 2; stroke-linecap: square"/>
    </g>
    <g id="text_17">
     <!-- Gap Z -->
     <g transform="translate(643.185938 38.969062) scale(0.1 -0.1)">
      <use xlink:href="#DejaVuSans-47"/>
      <use xlink:href="#DejaVuSans-61" transform="translate(77.490234 0)"/>
      <use xlink:href="#DejaVuSans-70" transform="translate(138.769531 0)"/>
      <use xlink:href="#DejaVuSans-20" transform="translate(202.246094 0)"/>
      <use xlink:href="#DejaVuSans-5a" transform="translate(234.033203 0)"/>
     </g>
    </g>
    <g id="line2d_31">
     <path d="M 615.185938 50.147187 
L 625.185938 50.147187 
L 635.185938 50.147187 
" style="fill: none; stroke: #ef4444; stroke-width: 2; stroke-linecap: square"/>
    </g>
    <g id="text_18">
     <!-- ChiNext Z -->
     <g transform="translate(643.185938 53.647187) scale(0.1 -0.1)">
      <use xlink:href="#DejaVuSans-43"/>
      <use xlink:href="#DejaVuSans-68" transform="translate(69.824219 0)"/>
      <use xlink:href="#DejaVuSans-69" transform="translate(133.203125 0)"/>
      <use xlink:href="#DejaVuSans-4e" transform="translate(160.986328 0)"/>
      <use xlink:href="#DejaVuSans-65" transform="translate(235.791016 0)"/>
      <use xlink:href="#DejaVuSans-78" transform="translate(295.564453 0)"/>
      <use xlink:href="#DejaVuSans-74" transform="translate(354.744141 0)"/>
      <use xlink:href="#DejaVuSans-20" transform="translate(393.953125 0)"/>
      <use xlink:href="#DejaVuSans-5a" transform="translate(425.740234 0)"/>
     </g>
    </g>
    <g id="line2d_32">
     <path d="M 615.185938 64.825312 
L 625.185938 64.825312 
L 635.185938 64.825312 
" style="fill: none; stroke: #1d4ed8; stroke-width: 2.4; stroke-linecap: square"/>
    </g>
    <g id="text_19">
     <!-- Gap MA3 Z -->
     <g transform="translate(643.185938 68.325312) scale(0.1 -0.1)">
      <use xlink:href="#DejaVuSans-47"/>
      <use xlink:href="#DejaVuSans-61" transform="translate(77.490234 0)"/>
      <use xlink:href="#DejaVuSans-70" transform="translate(138.769531 0)"/>
      <use xlink:href="#DejaVuSans-20" transform="translate(202.246094 0)"/>
      <use xlink:href="#DejaVuSans-4d" transform="translate(234.033203 0)"/>
      <use xlink:href="#DejaVuSans-41" transform="translate(320.3125 0)"/>
      <use xlink:href="#DejaVuSans-33" transform="translate(388.720703 0)"/>
      <use xlink:href="#DejaVuSans-20" transform="translate(452.34375 0)"/>
      <use xlink:href="#DejaVuSans-5a" transform="translate(484.130859 0)"/>
     </g>
    </g>
   </g>
  </g>
 </g>
 <defs>
  <clipPath id="p020e64e826">
   <rect x="37.848438" y="22.370625" width="669.6" height="277.2"/>
  </clipPath>
 </defs>
</svg>
